<svg width="336" height="476" viewBox="0 0 336 476" fill="none" xmlns="http://www.w3.org/2000/svg">
<path fill-rule="evenodd" clip-rule="evenodd" d="M250.281 121.179C285.098 178.131 227.474 182.963 239.001 242.72C246.589 282.063 356.001 284.5 332.001 321.586C312.518 351.691 223.681 307.383 213.155 338.523C194.711 393.092 280.586 465.722 220.228 474.5C159.317 483.359 158.126 421.471 105.605 368.576C78.0673 343.128 38.6761 328.961 17.5161 321.586C-27.8699 297.559 -34.277 269.245 -43.1528 242.72C-53.8688 210.697 -65.8861 181.403 -68.5263 157.384C-63.1835 130.156 -73.5876 132.364 -42.8319 101.964C-13.6598 73.1295 27.2358 -9.47223 75.9728 1.01742C136.528 14.0507 76.7446 118.44 136.376 145.185C186.414 167.627 221.392 73.9239 250.281 121.179Z" fill="url(#paint0_linear_469_1188)" fill-opacity="0.1"/>
<defs>
<linearGradient id="paint0_linear_469_1188" x1="343.942" y1="289.174" x2="-119.961" y2="116.177" gradientUnits="userSpaceOnUse">
<stop stop-color="#4E5AFF"/>
<stop offset="1" stop-color="#FF5E14" stop-opacity="0.05"/>
</linearGradient>
</defs>
</svg>
