<svg width="117" height="48" viewBox="0 0 117 48" fill="none" xmlns="http://www.w3.org/2000/svg">
<g opacity="0.5" clip-path="url(#clip0_45_506)">
<path d="M37.6463 21.4076C37.6463 19.346 35.5847 17.1469 32.1487 17.1469C28.3004 17.1469 23.9023 20.0332 23.2151 25.8057C22.5279 31.5782 26.1013 34.1896 29.8122 34.1896C33.5231 34.1896 35.3099 32.8152 37.234 30.891C35.5847 28.8294 33.3857 29.7915 32.9734 29.9289C32.561 30.2038 31.8738 30.4787 30.7743 30.4787C29.3999 30.4787 27.8881 29.7915 27.8881 27.1801C36.9591 26.218 37.6463 23.4692 37.6463 21.4076ZM33.2482 21.6825C33.2482 22.3697 32.9734 23.4692 28.4378 24.019C29.3999 20.5829 31.1866 20.3081 32.0113 20.3081C32.8359 20.4455 33.2482 20.9953 33.2482 21.6825ZM17.9923 22.2322C17.9923 22.2322 16.0681 28.2796 15.9307 28.8294C15.9307 28.2796 14.4189 17.4218 14.4189 17.4218C11.1203 17.4218 9.33355 19.7583 8.50891 22.2322C8.50891 22.2322 6.17241 28.2796 6.03497 28.8294C5.89753 28.4171 5.62265 22.3697 5.62265 22.3697C5.34777 19.346 2.59895 17.4218 0.399902 17.4218L3.14872 33.9147C6.58474 33.9147 8.50891 31.5782 9.47099 29.1043C9.47099 29.1043 11.5326 23.7441 11.67 23.4692C11.67 23.7441 13.1819 33.9147 13.1819 33.9147C16.6179 33.9147 18.5421 31.7156 19.5042 29.3791L24.3146 17.4218C20.7411 17.4218 18.9544 19.7583 17.9923 22.2322ZM50.4283 17.0095C48.3667 17.0095 46.7174 18.109 45.343 19.8957L46.4426 10C43.5563 10 41.3572 12.4739 40.8075 16.0474L38.6084 33.7772C40.2577 33.7772 41.907 33.3649 42.8691 32.128C43.6937 33.2275 44.9307 34.0521 46.7174 34.0521C51.5279 34.0521 54.8264 28.5545 54.8264 23.3318C54.9639 18.5213 52.6274 17.0095 50.4283 17.0095ZM49.8786 25.5308C49.3288 28.4171 47.817 30.3412 46.1677 30.3412C44.6558 30.3412 43.9686 29.654 43.9686 29.654C44.2435 27.1801 44.5184 25.5308 45.0681 24.1564C45.6179 22.782 46.9923 20.7204 48.3667 20.7204C49.7411 20.8578 50.4283 22.6446 49.8786 25.5308ZM66.9212 17.4218H63.6226V17.2844C63.8975 15.0853 64.3099 13.9858 66.0966 13.8483C67.1961 13.7109 67.7459 13.1611 67.8833 12.4739C68.0208 11.9242 68.2956 10.1374 68.2956 10.1374C61.561 10.1374 59.4994 13.0237 58.9497 17.4218V17.5592H58.8122C57.7127 17.5592 56.4757 18.7962 56.3383 20.3081L56.2008 20.8578H58.3999L56.4757 36.2512L55.926 39C56.0634 39 56.0634 39 56.2008 39C59.362 38.8626 61.2862 36.3886 61.8359 32.8152L63.3478 20.7204H64.4473C65.4094 20.7204 66.6464 19.7583 66.9212 17.9716V17.4218ZM84.2388 17.1469C80.3904 17.1469 76.817 20.0332 75.7174 24.4313C74.6179 28.8294 76.2672 34.1896 81.9023 34.1896C87.5373 34.1896 90.8359 28.6919 90.8359 24.1564C90.6985 19.6209 87.6748 17.1469 84.2388 17.1469ZM85.7506 25.3934C85.6132 27.455 84.6511 30.4787 82.1771 30.4787C79.7032 30.4787 80.1155 26.9052 80.253 25.2559C80.5279 23.4692 81.4899 20.8578 83.689 20.8578C85.7506 20.8578 86.0255 23.1943 85.7506 25.3934ZM109.803 22.2322C109.803 22.2322 107.879 28.2796 107.741 28.8294C107.741 28.2796 106.229 17.4218 106.229 17.4218C102.931 17.4218 101.144 19.7583 100.319 22.2322C100.319 22.2322 97.9828 28.2796 97.8454 28.8294C97.8454 28.4171 97.4331 22.3697 97.4331 22.3697C97.2956 19.346 94.4094 17.5592 92.2103 17.5592L94.9592 34.0521C98.3952 34.0521 100.319 31.7156 101.281 29.2417C101.281 29.2417 103.343 23.8815 103.48 23.6066C103.48 23.8815 104.992 34.0521 104.992 34.0521C108.428 34.0521 110.353 31.8531 111.315 29.5166L115.85 17.4218C112.414 17.4218 110.627 19.7583 109.803 22.2322ZM70.0824 10.1374L67.3335 32.6777L66.7838 35.4265C66.9212 35.4265 66.9212 35.4265 67.0587 35.4265C70.0824 35.4265 72.2814 32.6777 72.5563 29.3791L74.2056 16.4597C74.6179 12.6114 72.144 10.1374 70.0824 10.1374Z" fill="#1B1B1B"/>
</g>
<defs>
<clipPath id="clip0_45_506">
<rect width="116" height="48" fill="white" transform="translate(0.399902)"/>
</clipPath>
</defs>
</svg>
