<svg width="141" height="48" viewBox="0 0 141 48" fill="none" xmlns="http://www.w3.org/2000/svg">
<g opacity="0.5" clip-path="url(#clip0_45_503)">
<path d="M21.6726 3.0791C10.0747 3.0791 0.672241 12.4813 0.672241 24.0792C0.672241 35.6777 10.0747 45.0791 21.6726 45.0791C33.2718 45.0791 42.6733 35.6777 42.6733 24.0792C42.6733 12.482 33.2718 3.0801 21.6724 3.0801L21.6726 3.0791ZM31.3033 33.3673C30.9271 33.9842 30.1196 34.1798 29.5027 33.8011C24.5721 30.7894 18.3649 30.1073 11.0549 31.7774C10.3505 31.9379 9.64837 31.4966 9.48787 30.7919C9.32663 30.0872 9.76623 29.3851 10.4724 29.2246C18.472 27.3969 25.3339 28.1839 30.8694 31.5668C31.4863 31.9454 31.6819 32.7504 31.3033 33.3673ZM33.8737 27.6492C33.3997 28.4196 32.3916 28.6628 31.6217 28.1889C25.9769 24.7192 17.3721 23.7144 10.6953 25.7411C9.82943 26.0026 8.91486 25.5146 8.65205 24.6502C8.39125 23.7843 8.8795 22.8715 9.74391 22.6082C17.3706 20.2941 26.8521 21.415 33.3345 25.3985C34.1044 25.8725 34.3476 26.8806 33.8737 27.6495V27.6492ZM34.0944 21.6949C27.326 17.6748 16.1592 17.3051 9.69702 19.2664C8.65932 19.5811 7.56195 18.9953 7.24748 17.9576C6.93301 16.9194 7.51831 15.8228 8.55676 15.5073C15.9748 13.2554 28.3065 13.6905 36.099 18.3165C37.0344 18.8704 37.3403 20.0759 36.7861 21.008C36.2344 21.9414 35.0257 22.2491 34.0954 21.6949H34.0944ZM57.8073 22.4653C54.1812 21.6006 53.5367 20.9937 53.5367 19.7186C53.5367 18.5139 54.6702 17.7031 56.3579 17.7031C57.9929 17.7031 59.6129 18.3187 61.3131 19.5861C61.3633 19.6245 61.4285 19.6398 61.4912 19.6298C61.5564 19.6203 61.6115 19.5854 61.6492 19.533L63.4196 17.0373C63.4923 16.9345 63.4723 16.7928 63.3745 16.7143C61.3507 15.0911 59.0737 14.3019 56.4105 14.3019C52.496 14.3019 49.7601 16.6514 49.7601 20.013C49.7601 23.6178 52.1198 24.8942 56.1974 25.8795C59.6656 26.6787 60.2524 27.3483 60.2524 28.545C60.2524 29.8716 59.0687 30.6966 57.1629 30.6966C55.0463 30.6966 53.3185 29.9819 51.3876 28.3118C51.3399 28.2691 51.2747 28.2516 51.2146 28.2541C51.1493 28.2591 51.0917 28.2892 51.0515 28.3368L49.0654 30.6991C48.9827 30.7994 48.9927 30.9449 49.088 31.0301C51.3349 33.0363 54.0984 34.0945 57.0826 34.0945C61.3006 34.0945 64.0265 31.79 64.0265 28.2215C64.034 25.2105 62.231 23.5428 57.8149 22.4685L57.8073 22.4653ZM73.5709 18.8893C71.7427 18.8893 70.2431 19.6095 69.0043 21.0853V19.4242C69.0043 19.293 68.899 19.1862 68.7686 19.1862H65.5211C65.3907 19.1862 65.2854 19.293 65.2854 19.4242V37.8812C65.2854 38.0116 65.3907 38.1194 65.5211 38.1194H68.7686C68.899 38.1194 69.0043 38.0116 69.0043 37.8812V32.0558C70.2431 33.4425 71.7427 34.1221 73.5709 34.1221C76.9688 34.1221 80.4094 31.5066 80.4094 26.5064C80.4144 21.5053 76.9738 18.889 73.5734 18.889L73.5709 18.8893ZM76.6328 26.5064C76.6328 29.0515 75.0655 30.8295 72.8186 30.8295C70.5992 30.8295 68.9241 28.9713 68.9241 26.5064C68.9241 24.0414 70.5992 22.1836 72.8186 22.1836C75.0278 22.1834 76.6328 24.001 76.6328 26.5062V26.5064ZM89.224 18.8893C84.8481 18.8893 81.42 22.2586 81.42 26.5609C81.42 30.817 84.8255 34.1497 89.1714 34.1497C93.5624 34.1497 97.0005 30.7919 97.0005 26.5064C97.0005 22.2356 93.585 18.8898 89.224 18.8898V18.8893ZM89.224 30.8546C86.8969 30.8546 85.1415 28.9838 85.1415 26.5052C85.1415 24.0153 86.8367 22.2085 89.1714 22.2085C91.5136 22.2085 93.279 24.0785 93.279 26.5596C93.279 29.049 91.5738 30.8546 89.224 30.8546ZM106.344 19.1862H102.771V15.5334C102.771 15.4025 102.665 15.2957 102.535 15.2957H99.2875C99.1571 15.2957 99.0493 15.4025 99.0493 15.5334V19.1862H97.4895C97.3591 19.1862 97.2538 19.293 97.2538 19.4242V22.2145C97.2538 22.3454 97.3591 22.4525 97.4895 22.4525H99.0493V29.6734C99.0493 32.5899 100.501 34.0695 103.368 34.0695C104.531 34.0695 105.497 33.8287 106.407 33.3121C106.482 33.272 106.527 33.1918 106.527 33.1065V30.4483C106.527 30.3681 106.485 30.2903 106.414 30.2477C106.344 30.2026 106.256 30.2001 106.184 30.2377C105.559 30.5511 104.955 30.6966 104.278 30.6966C103.237 30.6966 102.771 30.2226 102.771 29.1644V22.4537H106.344C106.475 22.4537 106.58 22.3469 106.58 22.2157V19.4257C106.585 19.2945 106.48 19.1877 106.347 19.1877L106.344 19.1862ZM118.793 19.2005V18.7518C118.793 17.432 119.299 16.8435 120.433 16.8435C121.11 16.8435 121.654 16.9779 122.263 17.181C122.338 17.2046 122.416 17.1928 122.476 17.1479C122.539 17.103 122.574 17.031 122.574 16.9548V14.2189C122.574 14.1143 122.509 14.0218 122.406 13.9909C121.764 13.7996 120.942 13.6032 119.708 13.6032C116.711 13.6032 115.124 15.2919 115.124 18.485V19.1721H113.564C113.434 19.1721 113.326 19.279 113.326 19.4099V22.2145C113.326 22.3454 113.434 22.4525 113.564 22.4525H115.124V33.588C115.124 33.7209 115.232 33.8262 115.362 33.8262H118.607C118.74 33.8262 118.845 33.7209 118.845 33.588V22.4532H121.877L126.521 33.588C125.995 34.7566 125.476 34.9898 124.768 34.9898C124.197 34.9898 123.592 34.8193 122.978 34.4807C122.92 34.4506 122.85 34.4456 122.79 34.4632C122.727 34.4858 122.674 34.5309 122.649 34.5911L121.549 37.006C121.496 37.1214 121.541 37.2543 121.651 37.3145C122.8 37.9364 123.836 38.2022 125.117 38.2022C127.514 38.2022 128.841 37.0837 130.007 34.0795L135.639 19.5255C135.669 19.4522 135.659 19.3695 135.614 19.3045C135.572 19.2401 135.499 19.2012 135.421 19.2012H132.041C131.938 19.2012 131.848 19.2657 131.815 19.3607L128.352 29.2496L124.56 19.3542C124.525 19.2622 124.437 19.2012 124.34 19.2012H118.793V19.2005ZM111.575 19.1862H108.328C108.197 19.1862 108.09 19.293 108.09 19.4242V33.588C108.09 33.7209 108.197 33.8262 108.328 33.8262H111.575C111.706 33.8262 111.814 33.7209 111.814 33.588V19.4252C111.814 19.294 111.708 19.1872 111.575 19.1872V19.1862ZM109.97 12.7366C108.684 12.7366 107.641 13.7778 107.641 15.064C107.641 16.3509 108.684 17.3934 109.97 17.3934C111.257 17.3934 112.298 16.3509 112.298 15.064C112.298 13.778 111.254 12.7366 109.97 12.7366ZM138.413 23.7404C137.129 23.7404 136.128 22.7085 136.128 21.4554C136.128 20.2023 137.142 19.1586 138.425 19.1586C139.709 19.1586 140.71 20.1903 140.71 21.4424C140.71 22.6955 139.697 23.7404 138.413 23.7404ZM138.425 19.3858C137.254 19.3858 136.369 20.3161 136.369 21.4554C136.369 22.5942 137.249 23.512 138.413 23.512C139.584 23.512 140.469 22.5824 140.469 21.4424C140.469 20.3036 139.589 19.3858 138.425 19.3858ZM138.932 21.6773L139.579 22.5821H139.032L138.451 21.7521H137.952V22.5821H137.495V20.1837H138.563C139.123 20.1837 139.489 20.4689 139.489 20.9488C139.491 21.3421 139.263 21.5823 138.935 21.6773H138.932ZM138.546 20.5953H137.952V21.3538H138.546C138.842 21.3538 139.02 21.2086 139.02 20.9742C139.02 20.7274 138.842 20.5953 138.546 20.5953Z" fill="#1ED760"/>
</g>
<defs>
<clipPath id="clip0_45_503">
<rect width="140" height="48" fill="white" transform="translate(0.599976)"/>
</clipPath>
</defs>
</svg>
