<svg width="171" height="73" viewBox="0 0 171 73" fill="none" xmlns="http://www.w3.org/2000/svg">
<path d="M1.61967 3.23838C0.730108 3.23838 0 2.51666 0 1.6187C0 0.729138 0.721716 -0.000976562 1.61967 -0.000976562C2.51763 -0.000976562 3.23935 0.720746 3.23935 1.6187C3.23935 2.50827 2.50924 3.23838 1.61967 3.23838Z" fill="#4E5AFF" fill-opacity="0.31"/>
<path d="M16.8423 3.23838C15.9528 3.23838 15.2227 2.51666 15.2227 1.6187C15.2227 0.729138 15.9444 -0.000976562 16.8423 -0.000976562C17.7319 -0.000976562 18.462 0.720746 18.462 1.6187C18.4536 2.50827 17.7319 3.23838 16.8423 3.23838Z" fill="#4E5AFF" fill-opacity="0.31"/>
<path d="M32.0572 3.23838C31.1676 3.23838 30.4375 2.51666 30.4375 1.6187C30.4375 0.729138 31.1592 -0.000976562 32.0572 -0.000976562C32.9467 -0.000976562 33.6768 0.720746 33.6768 1.6187C33.6768 2.50827 32.9551 3.23838 32.0572 3.23838Z" fill="#4E5AFF" fill-opacity="0.31"/>
<path d="M47.2818 3.23838C46.3923 3.23838 45.6621 2.51666 45.6621 1.6187C45.6621 0.729138 46.3839 -0.000976562 47.2818 -0.000976562C48.1714 -0.000976562 48.9015 0.720746 48.9015 1.6187C48.9015 2.50827 48.1714 3.23838 47.2818 3.23838Z" fill="#4E5AFF" fill-opacity="0.31"/>
<path d="M62.4967 3.23838C61.6071 3.23838 60.877 2.51666 60.877 1.6187C60.877 0.729138 61.5987 -0.000976562 62.4967 -0.000976562C63.3862 -0.000976562 64.1164 0.720746 64.1164 1.6187C64.1164 2.50827 63.3946 3.23838 62.4967 3.23838Z" fill="#4E5AFF" fill-opacity="0.31"/>
<path d="M77.7196 3.23838C76.83 3.23838 76.0999 2.51666 76.0999 1.6187C76.0999 0.729138 76.8216 -0.000976562 77.7196 -0.000976562C78.6176 -0.000976562 79.3393 0.720746 79.3393 1.6187C79.3393 2.50827 78.6092 3.23838 77.7196 3.23838Z" fill="#4E5AFF" fill-opacity="0.31"/>
<path d="M1.61967 17.119C0.730108 17.119 0 16.3973 0 15.4993C0 14.6098 0.721716 13.8796 1.61967 13.8796C2.51763 13.8796 3.23935 14.6014 3.23935 15.4993C3.23935 16.3889 2.50924 17.119 1.61967 17.119Z" fill="#4E5AFF" fill-opacity="0.31"/>
<path d="M16.8423 17.119C15.9528 17.119 15.2227 16.3973 15.2227 15.4993C15.2227 14.6098 15.9444 13.8796 16.8423 13.8796C17.7319 13.8796 18.462 14.6014 18.462 15.4993C18.4536 16.3889 17.7319 17.119 16.8423 17.119Z" fill="#4E5AFF" fill-opacity="0.31"/>
<path d="M32.0572 17.119C31.1676 17.119 30.4375 16.3973 30.4375 15.4993C30.4375 14.6098 31.1592 13.8796 32.0572 13.8796C32.9467 13.8796 33.6768 14.6014 33.6768 15.4993C33.6768 16.3889 32.9551 17.119 32.0572 17.119Z" fill="#4E5AFF" fill-opacity="0.31"/>
<path d="M47.2818 17.119C46.3923 17.119 45.6621 16.3973 45.6621 15.4993C45.6621 14.6098 46.3839 13.8796 47.2818 13.8796C48.1714 13.8796 48.9015 14.6014 48.9015 15.4993C48.9015 16.3889 48.1714 17.119 47.2818 17.119Z" fill="#4E5AFF" fill-opacity="0.31"/>
<path d="M62.4967 17.119C61.6071 17.119 60.877 16.3973 60.877 15.4993C60.877 14.6098 61.5987 13.8796 62.4967 13.8796C63.3862 13.8796 64.1164 14.6014 64.1164 15.4993C64.1164 16.3889 63.3946 17.119 62.4967 17.119Z" fill="#4E5AFF" fill-opacity="0.31"/>
<path d="M77.7196 17.119C76.83 17.119 76.0999 16.3973 76.0999 15.4993C76.0999 14.6098 76.8216 13.8796 77.7196 13.8796C78.6176 13.8796 79.3393 14.6014 79.3393 15.4993C79.3393 16.3889 78.6092 17.119 77.7196 17.119Z" fill="#4E5AFF" fill-opacity="0.31"/>
<path d="M1.61967 30.9912C0.730108 30.9912 0 30.2695 0 29.3715C0 28.4819 0.721716 27.7518 1.61967 27.7518C2.51763 27.7518 3.23935 28.4735 3.23935 29.3715C3.23935 30.2695 2.50924 30.9912 1.61967 30.9912Z" fill="#4E5AFF" fill-opacity="0.31"/>
<path d="M16.8423 30.9912C15.9528 30.9912 15.2227 30.2695 15.2227 29.3715C15.2227 28.4819 15.9444 27.7518 16.8423 27.7518C17.7319 27.7518 18.462 28.4735 18.462 29.3715C18.4536 30.2695 17.7319 30.9912 16.8423 30.9912Z" fill="#4E5AFF" fill-opacity="0.31"/>
<path d="M32.0572 30.9912C31.1676 30.9912 30.4375 30.2695 30.4375 29.3715C30.4375 28.4819 31.1592 27.7518 32.0572 27.7518C32.9467 27.7518 33.6768 28.4735 33.6768 29.3715C33.6768 30.2695 32.9551 30.9912 32.0572 30.9912Z" fill="#4E5AFF" fill-opacity="0.31"/>
<path d="M47.2818 30.9912C46.3923 30.9912 45.6621 30.2695 45.6621 29.3715C45.6621 28.4819 46.3839 27.7518 47.2818 27.7518C48.1714 27.7518 48.9015 28.4735 48.9015 29.3715C48.9015 30.2695 48.1714 30.9912 47.2818 30.9912Z" fill="#4E5AFF" fill-opacity="0.31"/>
<path d="M62.4967 30.9912C61.6071 30.9912 60.877 30.2695 60.877 29.3715C60.877 28.4819 61.5987 27.7518 62.4967 27.7518C63.3862 27.7518 64.1164 28.4735 64.1164 29.3715C64.1164 30.2695 63.3946 30.9912 62.4967 30.9912Z" fill="#4E5AFF" fill-opacity="0.31"/>
<path d="M77.7196 30.9912C76.83 30.9912 76.0999 30.2695 76.0999 29.3715C76.0999 28.4819 76.8216 27.7518 77.7196 27.7518C78.6176 27.7518 79.3393 28.4735 79.3393 29.3715C79.3393 30.2695 78.6092 30.9912 77.7196 30.9912Z" fill="#4E5AFF" fill-opacity="0.31"/>
<path d="M1.61967 44.8717C0.730108 44.8717 0 44.15 0 43.252C0 42.3624 0.721716 41.6323 1.61967 41.6323C2.51763 41.6323 3.23935 42.3541 3.23935 43.252C3.23935 44.1416 2.50924 44.8717 1.61967 44.8717Z" fill="#4E5AFF" fill-opacity="0.31"/>
<path d="M16.8423 44.8717C15.9528 44.8717 15.2227 44.15 15.2227 43.252C15.2227 42.3624 15.9444 41.6323 16.8423 41.6323C17.7319 41.6323 18.462 42.3541 18.462 43.252C18.4536 44.1416 17.7319 44.8717 16.8423 44.8717Z" fill="#4E5AFF" fill-opacity="0.31"/>
<path d="M32.0572 44.8717C31.1676 44.8717 30.4375 44.15 30.4375 43.252C30.4375 42.3624 31.1592 41.6323 32.0572 41.6323C32.9467 41.6323 33.6768 42.3541 33.6768 43.252C33.6768 44.1416 32.9551 44.8717 32.0572 44.8717Z" fill="#4E5AFF" fill-opacity="0.31"/>
<path d="M47.2818 44.8717C46.3923 44.8717 45.6621 44.15 45.6621 43.252C45.6621 42.3624 46.3839 41.6323 47.2818 41.6323C48.1714 41.6323 48.9015 42.3541 48.9015 43.252C48.9015 44.1416 48.1714 44.8717 47.2818 44.8717Z" fill="#4E5AFF" fill-opacity="0.31"/>
<path d="M62.4967 44.8717C61.6071 44.8717 60.877 44.15 60.877 43.252C60.877 42.3624 61.5987 41.6323 62.4967 41.6323C63.3862 41.6323 64.1164 42.3541 64.1164 43.252C64.1164 44.1416 63.3946 44.8717 62.4967 44.8717Z" fill="#4E5AFF" fill-opacity="0.31"/>
<path d="M77.7196 44.8717C76.83 44.8717 76.0999 44.15 76.0999 43.252C76.0999 42.3624 76.8216 41.6323 77.7196 41.6323C78.6176 41.6323 79.3393 42.3541 79.3393 43.252C79.3393 44.1416 78.6092 44.8717 77.7196 44.8717Z" fill="#4E5AFF" fill-opacity="0.31"/>
<path d="M1.61967 58.7523C0.730108 58.7523 0 58.0306 0 57.1326C0 56.243 0.721716 55.5129 1.61967 55.5129C2.51763 55.5129 3.23935 56.2347 3.23935 57.1326C3.23935 58.0222 2.50924 58.7523 1.61967 58.7523Z" fill="#4E5AFF" fill-opacity="0.31"/>
<path d="M16.8423 58.7523C15.9528 58.7523 15.2227 58.0306 15.2227 57.1326C15.2227 56.243 15.9444 55.5129 16.8423 55.5129C17.7319 55.5129 18.462 56.2347 18.462 57.1326C18.4536 58.0222 17.7319 58.7523 16.8423 58.7523Z" fill="#4E5AFF" fill-opacity="0.31"/>
<path d="M32.0572 58.7523C31.1676 58.7523 30.4375 58.0306 30.4375 57.1326C30.4375 56.243 31.1592 55.5129 32.0572 55.5129C32.9467 55.5129 33.6768 56.2347 33.6768 57.1326C33.6768 58.0222 32.9551 58.7523 32.0572 58.7523Z" fill="#4E5AFF" fill-opacity="0.31"/>
<path d="M47.2818 58.7523C46.3923 58.7523 45.6621 58.0306 45.6621 57.1326C45.6621 56.243 46.3839 55.5129 47.2818 55.5129C48.1714 55.5129 48.9015 56.2347 48.9015 57.1326C48.9015 58.0222 48.1714 58.7523 47.2818 58.7523Z" fill="#4E5AFF" fill-opacity="0.31"/>
<path d="M62.4967 58.7523C61.6071 58.7523 60.877 58.0306 60.877 57.1326C60.877 56.243 61.5987 55.5129 62.4967 55.5129C63.3862 55.5129 64.1164 56.2347 64.1164 57.1326C64.1164 58.0222 63.3946 58.7523 62.4967 58.7523Z" fill="#4E5AFF" fill-opacity="0.31"/>
<path d="M77.7196 58.7523C76.83 58.7523 76.0999 58.0306 76.0999 57.1326C76.0999 56.243 76.8216 55.5129 77.7196 55.5129C78.6176 55.5129 79.3393 56.2347 79.3393 57.1326C79.3393 58.0222 78.6092 58.7523 77.7196 58.7523Z" fill="#4E5AFF" fill-opacity="0.31"/>
<path d="M1.61967 72.6245C0.730108 72.6245 0 71.9028 0 71.0048C0 70.1152 0.721716 69.3851 1.61967 69.3851C2.51763 69.3851 3.23935 70.1068 3.23935 71.0048C3.23935 71.9028 2.50924 72.6245 1.61967 72.6245Z" fill="#4E5AFF" fill-opacity="0.31"/>
<path d="M16.8423 72.6245C15.9528 72.6245 15.2227 71.9028 15.2227 71.0048C15.2227 70.1152 15.9444 69.3851 16.8423 69.3851C17.7319 69.3851 18.462 70.1068 18.462 71.0048C18.4536 71.9028 17.7319 72.6245 16.8423 72.6245Z" fill="#4E5AFF" fill-opacity="0.31"/>
<path d="M32.0572 72.6245C31.1676 72.6245 30.4375 71.9028 30.4375 71.0048C30.4375 70.1152 31.1592 69.3851 32.0572 69.3851C32.9467 69.3851 33.6768 70.1068 33.6768 71.0048C33.6768 71.9028 32.9551 72.6245 32.0572 72.6245Z" fill="#4E5AFF" fill-opacity="0.31"/>
<path d="M47.2818 72.6245C46.3923 72.6245 45.6621 71.9028 45.6621 71.0048C45.6621 70.1152 46.3839 69.3851 47.2818 69.3851C48.1714 69.3851 48.9015 70.1068 48.9015 71.0048C48.9015 71.9028 48.1714 72.6245 47.2818 72.6245Z" fill="#4E5AFF" fill-opacity="0.31"/>
<path d="M62.4967 72.6245C61.6071 72.6245 60.877 71.9028 60.877 71.0048C60.877 70.1152 61.5987 69.3851 62.4967 69.3851C63.3862 69.3851 64.1164 70.1068 64.1164 71.0048C64.1164 71.9028 63.3946 72.6245 62.4967 72.6245Z" fill="#4E5AFF" fill-opacity="0.31"/>
<path d="M77.7196 72.6245C76.83 72.6245 76.0999 71.9028 76.0999 71.0048C76.0999 70.1152 76.8216 69.3851 77.7196 69.3851C78.6176 69.3851 79.3393 70.1068 79.3393 71.0048C79.3393 71.9028 78.6092 72.6245 77.7196 72.6245Z" fill="#4E5AFF" fill-opacity="0.31"/>
<path d="M92.9595 3.23838C92.07 3.23838 91.3398 2.51666 91.3398 1.6187C91.3398 0.729138 92.0616 -0.000976562 92.9595 -0.000976562C93.8575 -0.000976562 94.5792 0.720746 94.5792 1.6187C94.5792 2.50827 93.8491 3.23838 92.9595 3.23838Z" fill="#4E5AFF" fill-opacity="0.31"/>
<path d="M108.182 3.23838C107.293 3.23838 106.562 2.51666 106.562 1.6187C106.562 0.729138 107.284 -0.000976562 108.182 -0.000976562C109.072 -0.000976562 109.802 0.720746 109.802 1.6187C109.793 2.50827 109.072 3.23838 108.182 3.23838Z" fill="#4E5AFF" fill-opacity="0.31"/>
<path d="M123.397 3.23838C122.507 3.23838 121.777 2.51666 121.777 1.6187C121.777 0.729138 122.499 -0.000976562 123.397 -0.000976562C124.287 -0.000976562 125.017 0.720746 125.017 1.6187C125.017 2.50827 124.295 3.23838 123.397 3.23838Z" fill="#4E5AFF" fill-opacity="0.31"/>
<path d="M138.622 3.23838C137.732 3.23838 137.002 2.51666 137.002 1.6187C137.002 0.729138 137.724 -0.000976562 138.622 -0.000976562C139.511 -0.000976562 140.241 0.720746 140.241 1.6187C140.241 2.50827 139.511 3.23838 138.622 3.23838Z" fill="#4E5AFF" fill-opacity="0.31"/>
<path d="M153.837 3.23838C152.947 3.23838 152.217 2.51666 152.217 1.6187C152.217 0.729138 152.939 -0.000976562 153.837 -0.000976562C154.726 -0.000976562 155.456 0.720746 155.456 1.6187C155.456 2.50827 154.734 3.23838 153.837 3.23838Z" fill="#4E5AFF" fill-opacity="0.31"/>
<path d="M169.059 3.23838C168.17 3.23838 167.44 2.51666 167.44 1.6187C167.44 0.729138 168.161 -0.000976562 169.059 -0.000976562C169.957 -0.000976562 170.679 0.720746 170.679 1.6187C170.679 2.50827 169.949 3.23838 169.059 3.23838Z" fill="#4E5AFF" fill-opacity="0.31"/>
<path d="M92.9595 17.119C92.07 17.119 91.3398 16.3973 91.3398 15.4993C91.3398 14.6098 92.0616 13.8796 92.9595 13.8796C93.8575 13.8796 94.5792 14.6014 94.5792 15.4993C94.5792 16.3889 93.8491 17.119 92.9595 17.119Z" fill="#4E5AFF" fill-opacity="0.31"/>
<path d="M108.182 17.119C107.293 17.119 106.562 16.3973 106.562 15.4993C106.562 14.6098 107.284 13.8796 108.182 13.8796C109.072 13.8796 109.802 14.6014 109.802 15.4993C109.793 16.3889 109.072 17.119 108.182 17.119Z" fill="#4E5AFF" fill-opacity="0.31"/>
<path d="M123.397 17.119C122.507 17.119 121.777 16.3973 121.777 15.4993C121.777 14.6098 122.499 13.8796 123.397 13.8796C124.287 13.8796 125.017 14.6014 125.017 15.4993C125.017 16.3889 124.295 17.119 123.397 17.119Z" fill="#4E5AFF" fill-opacity="0.31"/>
<path d="M138.622 17.119C137.732 17.119 137.002 16.3973 137.002 15.4993C137.002 14.6098 137.724 13.8796 138.622 13.8796C139.511 13.8796 140.241 14.6014 140.241 15.4993C140.241 16.3889 139.511 17.119 138.622 17.119Z" fill="#4E5AFF" fill-opacity="0.31"/>
<path d="M153.837 17.119C152.947 17.119 152.217 16.3973 152.217 15.4993C152.217 14.6098 152.939 13.8796 153.837 13.8796C154.726 13.8796 155.456 14.6014 155.456 15.4993C155.456 16.3889 154.734 17.119 153.837 17.119Z" fill="#4E5AFF" fill-opacity="0.31"/>
<path d="M169.059 17.119C168.17 17.119 167.44 16.3973 167.44 15.4993C167.44 14.6098 168.161 13.8796 169.059 13.8796C169.957 13.8796 170.679 14.6014 170.679 15.4993C170.679 16.3889 169.949 17.119 169.059 17.119Z" fill="#4E5AFF" fill-opacity="0.31"/>
<path d="M92.9595 30.9912C92.07 30.9912 91.3398 30.2695 91.3398 29.3715C91.3398 28.4819 92.0616 27.7518 92.9595 27.7518C93.8575 27.7518 94.5792 28.4735 94.5792 29.3715C94.5792 30.2695 93.8491 30.9912 92.9595 30.9912Z" fill="#4E5AFF" fill-opacity="0.31"/>
<path d="M108.182 30.9912C107.293 30.9912 106.562 30.2695 106.562 29.3715C106.562 28.4819 107.284 27.7518 108.182 27.7518C109.072 27.7518 109.802 28.4735 109.802 29.3715C109.793 30.2695 109.072 30.9912 108.182 30.9912Z" fill="#4E5AFF" fill-opacity="0.31"/>
<path d="M123.397 30.9912C122.507 30.9912 121.777 30.2695 121.777 29.3715C121.777 28.4819 122.499 27.7518 123.397 27.7518C124.287 27.7518 125.017 28.4735 125.017 29.3715C125.017 30.2695 124.295 30.9912 123.397 30.9912Z" fill="#4E5AFF" fill-opacity="0.31"/>
<path d="M138.622 30.9912C137.732 30.9912 137.002 30.2695 137.002 29.3715C137.002 28.4819 137.724 27.7518 138.622 27.7518C139.511 27.7518 140.241 28.4735 140.241 29.3715C140.241 30.2695 139.511 30.9912 138.622 30.9912Z" fill="#4E5AFF" fill-opacity="0.31"/>
<path d="M153.837 30.9912C152.947 30.9912 152.217 30.2695 152.217 29.3715C152.217 28.4819 152.939 27.7518 153.837 27.7518C154.726 27.7518 155.456 28.4735 155.456 29.3715C155.456 30.2695 154.734 30.9912 153.837 30.9912Z" fill="#4E5AFF" fill-opacity="0.31"/>
<path d="M169.059 30.9912C168.17 30.9912 167.44 30.2695 167.44 29.3715C167.44 28.4819 168.161 27.7518 169.059 27.7518C169.957 27.7518 170.679 28.4735 170.679 29.3715C170.679 30.2695 169.949 30.9912 169.059 30.9912Z" fill="#4E5AFF" fill-opacity="0.31"/>
<path d="M92.9595 44.8717C92.07 44.8717 91.3398 44.15 91.3398 43.252C91.3398 42.3624 92.0616 41.6323 92.9595 41.6323C93.8575 41.6323 94.5792 42.3541 94.5792 43.252C94.5792 44.1416 93.8491 44.8717 92.9595 44.8717Z" fill="#4E5AFF" fill-opacity="0.31"/>
<path d="M108.182 44.8717C107.293 44.8717 106.562 44.15 106.562 43.252C106.562 42.3624 107.284 41.6323 108.182 41.6323C109.072 41.6323 109.802 42.3541 109.802 43.252C109.793 44.1416 109.072 44.8717 108.182 44.8717Z" fill="#4E5AFF" fill-opacity="0.31"/>
<path d="M123.397 44.8717C122.507 44.8717 121.777 44.15 121.777 43.252C121.777 42.3624 122.499 41.6323 123.397 41.6323C124.287 41.6323 125.017 42.3541 125.017 43.252C125.017 44.1416 124.295 44.8717 123.397 44.8717Z" fill="#4E5AFF" fill-opacity="0.31"/>
<path d="M138.622 44.8717C137.732 44.8717 137.002 44.15 137.002 43.252C137.002 42.3624 137.724 41.6323 138.622 41.6323C139.511 41.6323 140.241 42.3541 140.241 43.252C140.241 44.1416 139.511 44.8717 138.622 44.8717Z" fill="#4E5AFF" fill-opacity="0.31"/>
<path d="M153.837 44.8717C152.947 44.8717 152.217 44.15 152.217 43.252C152.217 42.3624 152.939 41.6323 153.837 41.6323C154.726 41.6323 155.456 42.3541 155.456 43.252C155.456 44.1416 154.734 44.8717 153.837 44.8717Z" fill="#4E5AFF" fill-opacity="0.31"/>
<path d="M169.059 44.8717C168.17 44.8717 167.44 44.15 167.44 43.252C167.44 42.3624 168.161 41.6323 169.059 41.6323C169.957 41.6323 170.679 42.3541 170.679 43.252C170.679 44.1416 169.949 44.8717 169.059 44.8717Z" fill="#4E5AFF" fill-opacity="0.31"/>
<path d="M92.9595 58.7523C92.07 58.7523 91.3398 58.0306 91.3398 57.1326C91.3398 56.243 92.0616 55.5129 92.9595 55.5129C93.8575 55.5129 94.5792 56.2347 94.5792 57.1326C94.5792 58.0222 93.8491 58.7523 92.9595 58.7523Z" fill="#4E5AFF" fill-opacity="0.31"/>
<path d="M108.182 58.7523C107.293 58.7523 106.562 58.0306 106.562 57.1326C106.562 56.243 107.284 55.5129 108.182 55.5129C109.072 55.5129 109.802 56.2347 109.802 57.1326C109.793 58.0222 109.072 58.7523 108.182 58.7523Z" fill="#4E5AFF" fill-opacity="0.31"/>
<path d="M123.397 58.7523C122.507 58.7523 121.777 58.0306 121.777 57.1326C121.777 56.243 122.499 55.5129 123.397 55.5129C124.287 55.5129 125.017 56.2347 125.017 57.1326C125.017 58.0222 124.295 58.7523 123.397 58.7523Z" fill="#4E5AFF" fill-opacity="0.31"/>
<path d="M138.622 58.7523C137.732 58.7523 137.002 58.0306 137.002 57.1326C137.002 56.243 137.724 55.5129 138.622 55.5129C139.511 55.5129 140.241 56.2347 140.241 57.1326C140.241 58.0222 139.511 58.7523 138.622 58.7523Z" fill="#4E5AFF" fill-opacity="0.31"/>
<path d="M153.837 58.7523C152.947 58.7523 152.217 58.0306 152.217 57.1326C152.217 56.243 152.939 55.5129 153.837 55.5129C154.726 55.5129 155.456 56.2347 155.456 57.1326C155.456 58.0222 154.734 58.7523 153.837 58.7523Z" fill="#4E5AFF" fill-opacity="0.31"/>
<path d="M169.059 58.7523C168.17 58.7523 167.44 58.0306 167.44 57.1326C167.44 56.243 168.161 55.5129 169.059 55.5129C169.957 55.5129 170.679 56.2347 170.679 57.1326C170.679 58.0222 169.949 58.7523 169.059 58.7523Z" fill="#4E5AFF" fill-opacity="0.31"/>
<path d="M92.9595 72.6245C92.07 72.6245 91.3398 71.9028 91.3398 71.0048C91.3398 70.1152 92.0616 69.3851 92.9595 69.3851C93.8575 69.3851 94.5792 70.1068 94.5792 71.0048C94.5792 71.9028 93.8491 72.6245 92.9595 72.6245Z" fill="#4E5AFF" fill-opacity="0.31"/>
<path d="M108.182 72.6245C107.293 72.6245 106.562 71.9028 106.562 71.0048C106.562 70.1152 107.284 69.3851 108.182 69.3851C109.072 69.3851 109.802 70.1068 109.802 71.0048C109.793 71.9028 109.072 72.6245 108.182 72.6245Z" fill="#4E5AFF" fill-opacity="0.31"/>
<path d="M123.397 72.6245C122.507 72.6245 121.777 71.9028 121.777 71.0048C121.777 70.1152 122.499 69.3851 123.397 69.3851C124.287 69.3851 125.017 70.1068 125.017 71.0048C125.017 71.9028 124.295 72.6245 123.397 72.6245Z" fill="#4E5AFF" fill-opacity="0.31"/>
<path d="M138.622 72.6245C137.732 72.6245 137.002 71.9028 137.002 71.0048C137.002 70.1152 137.724 69.3851 138.622 69.3851C139.511 69.3851 140.241 70.1068 140.241 71.0048C140.241 71.9028 139.511 72.6245 138.622 72.6245Z" fill="#4E5AFF" fill-opacity="0.31"/>
<path d="M153.837 72.6245C152.947 72.6245 152.217 71.9028 152.217 71.0048C152.217 70.1152 152.939 69.3851 153.837 69.3851C154.726 69.3851 155.456 70.1068 155.456 71.0048C155.456 71.9028 154.734 72.6245 153.837 72.6245Z" fill="#4E5AFF" fill-opacity="0.31"/>
<path d="M169.059 72.6245C168.17 72.6245 167.44 71.9028 167.44 71.0048C167.44 70.1152 168.161 69.3851 169.059 69.3851C169.957 69.3851 170.679 70.1068 170.679 71.0048C170.679 71.9028 169.949 72.6245 169.059 72.6245Z" fill="#4E5AFF" fill-opacity="0.31"/>
</svg>
