<svg width="21" height="19" viewBox="0 0 21 19" fill="none" xmlns="http://www.w3.org/2000/svg">
<path d="M2.50077 4.99994C1.12773 4.99994 0.000732422 3.88596 0.000732422 2.49997C0.000732422 1.12693 1.11478 0 2.50077 0C3.87381 0 5.00073 1.11398 5.00073 2.49997C5.00073 3.87301 3.88677 4.99994 2.50077 4.99994Z" fill="white"/>
<path d="M17.7234 4.99986C16.3503 4.99986 15.2234 3.8859 15.2234 2.49993C15.2234 1.12691 16.3374 0 17.7234 0C19.1094 0 20.2234 1.11396 20.2234 2.49993C20.2234 3.87295 19.0965 4.99986 17.7234 4.99986Z" fill="white"/>
<path d="M2.50077 18.8805C1.12773 18.8805 0.000732422 17.7665 0.000732422 16.3805C0.000732422 15.0075 1.11478 13.8806 2.50077 13.8806C3.87381 13.8806 5.00073 14.9945 5.00073 16.3805C5.00073 17.7536 3.88677 18.8805 2.50077 18.8805Z" fill="white"/>
<path d="M17.7234 18.8802C16.3503 18.8802 15.2234 17.7663 15.2234 16.3803C15.2234 15.0073 16.3374 13.8804 17.7234 13.8804C19.1094 13.8804 20.2234 14.9943 20.2234 16.3803C20.2234 17.7533 19.0965 18.8802 17.7234 18.8802Z" fill="white"/>
</svg>
