<svg width="292" height="219" viewBox="0 0 292 219" fill="none" xmlns="http://www.w3.org/2000/svg">
<circle cx="76" cy="216" r="216" fill="#01011C"/>
<path d="M87.9618 116.74V107.2H104.582V151H93.9018V116.74H87.9618Z" fill="#FF5E14"/>
<path d="M121.716 133.813L113.883 166.04H110.657L118.462 133.813H121.716ZM126.229 145.189C126.344 143.403 127.025 142.011 128.273 141.013C129.541 140.014 131.153 139.515 133.112 139.515C134.456 139.515 135.617 139.755 136.597 140.235C137.576 140.715 138.315 141.368 138.814 142.194C139.313 143.019 139.563 143.95 139.563 144.987C139.563 146.178 139.246 147.195 138.613 148.04C137.979 148.885 137.221 149.451 136.337 149.739V149.854C137.47 150.2 138.353 150.834 138.987 151.755C139.621 152.658 139.937 153.819 139.937 155.24C139.937 156.373 139.678 157.381 139.16 158.264C138.641 159.147 137.873 159.848 136.856 160.366C135.838 160.866 134.619 161.115 133.198 161.115C131.125 161.115 129.416 160.587 128.072 159.531C126.747 158.456 126.037 156.92 125.941 154.923H129.109C129.185 155.941 129.579 156.776 130.289 157.429C131 158.062 131.96 158.379 133.169 158.379C134.341 158.379 135.243 158.062 135.877 157.429C136.51 156.776 136.827 155.941 136.827 154.923C136.827 153.579 136.395 152.629 135.531 152.072C134.686 151.496 133.381 151.208 131.614 151.208H130.865V148.501H131.643C133.198 148.482 134.379 148.222 135.185 147.723C136.011 147.224 136.424 146.437 136.424 145.362C136.424 144.44 136.126 143.71 135.531 143.173C134.936 142.616 134.091 142.338 132.997 142.338C131.921 142.338 131.086 142.616 130.491 143.173C129.896 143.71 129.541 144.382 129.425 145.189H126.229Z" fill="white"/>
</svg>
