<svg width="292" height="219" viewBox="0 0 292 219" fill="none" xmlns="http://www.w3.org/2000/svg">
<circle cx="76" cy="216" r="216" fill="#01011C"/>
<path d="M82.34 126.78C83.7 125.7 84.32 125.2 84.2 125.28C88.12 122.04 91.2 119.38 93.44 117.3C95.72 115.22 97.64 113.04 99.2 110.76C100.76 108.48 101.54 106.26 101.54 104.1C101.54 102.46 101.16 101.18 100.4 100.26C99.64 99.34 98.5 98.88 96.98 98.88C95.46 98.88 94.26 99.46 93.38 100.62C92.54 101.74 92.12 103.34 92.12 105.42H82.22C82.3 102.02 83.02 99.18 84.38 96.9C85.78 94.62 87.6 92.94 89.84 91.86C92.12 90.78 94.64 90.24 97.4 90.24C102.16 90.24 105.74 91.46 108.14 93.9C110.58 96.34 111.8 99.52 111.8 103.44C111.8 107.72 110.34 111.7 107.42 115.38C104.5 119.02 100.78 122.58 96.26 126.06H112.46V134.4H82.34V126.78Z" fill="#FF5E14"/>
<path d="M127.093 117.813L119.26 150.04H116.034L123.839 117.813H127.093ZM131.605 129.189C131.721 127.403 132.402 126.011 133.65 125.013C134.917 124.014 136.53 123.515 138.489 123.515C139.833 123.515 140.994 123.755 141.973 124.235C142.953 124.715 143.692 125.368 144.191 126.194C144.69 127.019 144.94 127.95 144.94 128.987C144.94 130.178 144.623 131.195 143.989 132.04C143.356 132.885 142.597 133.451 141.714 133.739V133.854C142.847 134.2 143.73 134.834 144.364 135.755C144.997 136.658 145.314 137.819 145.314 139.24C145.314 140.373 145.055 141.381 144.537 142.264C144.018 143.147 143.25 143.848 142.233 144.366C141.215 144.866 139.996 145.115 138.575 145.115C136.501 145.115 134.793 144.587 133.449 143.531C132.124 142.456 131.413 140.92 131.317 138.923H134.485C134.562 139.941 134.956 140.776 135.666 141.429C136.377 142.062 137.337 142.379 138.546 142.379C139.717 142.379 140.62 142.062 141.253 141.429C141.887 140.776 142.204 139.941 142.204 138.923C142.204 137.579 141.772 136.629 140.908 136.072C140.063 135.496 138.757 135.208 136.991 135.208H136.242V132.501H137.02C138.575 132.482 139.756 132.222 140.562 131.723C141.388 131.224 141.801 130.437 141.801 129.362C141.801 128.44 141.503 127.71 140.908 127.173C140.313 126.616 139.468 126.338 138.373 126.338C137.298 126.338 136.463 126.616 135.868 127.173C135.273 127.71 134.917 128.382 134.802 129.189H131.605Z" fill="white"/>
</svg>
