<svg width="30" height="33" viewBox="0 0 30 33" fill="none" xmlns="http://www.w3.org/2000/svg">
<path d="M30 27.8131C30 26.741 29.3254 25.7679 28.322 25.3913L25.8621 24.4692V24.031C26.2535 23.6797 26.5551 23.2319 26.7283 22.7235C27.703 22.5563 28.4483 21.7108 28.4483 20.6897V18.6207C28.4483 17.8557 28.2594 17.1351 27.931 16.4979V13.8476C27.931 12.7755 27.2564 11.8023 26.253 11.4258L23.7931 10.5037V10.0655C24.1846 9.71419 24.4861 9.2664 24.6594 8.758C25.634 8.5908 26.3793 7.74523 26.3793 6.72414V4.65517C26.3793 2.08867 24.2911 0 21.7241 0C19.1571 0 17.069 2.08867 17.069 4.65517V6.72414C17.069 7.74523 17.8143 8.5908 18.7889 8.758C18.9621 9.26589 19.2637 9.71368 19.6552 10.0655V10.5037L17.7115 11.2323C17.0101 10.6671 16.1317 10.3448 15.2043 10.3448H15C13.9577 10.3448 12.9884 10.6572 12.1754 11.1899L10.3448 10.5037V10.0655C10.7363 9.71419 11.0378 9.2664 11.2111 8.758C12.1857 8.5908 12.931 7.74523 12.931 6.72414V4.65517C12.931 2.08867 10.8429 0 8.27586 0C5.70885 0 3.62069 2.08867 3.62069 4.65517V6.72414C3.62069 7.74523 4.36599 8.5908 5.34062 8.758C5.51387 9.26589 5.81543 9.71368 6.2069 10.0655V10.5037L3.74747 11.4263C2.74355 11.8023 2.06897 12.7755 2.06897 13.8476V16.4979C1.74064 17.1351 1.55172 17.8557 1.55172 18.6207V20.6897C1.55172 21.7108 2.29703 22.5563 3.27165 22.7235C3.44491 23.2314 3.74646 23.6792 4.13793 24.031V24.4692L1.67851 25.3913C0.674586 25.7679 0 26.741 0 27.8131V31.0345H7.24138V32.069H22.7586V31.0345H30V27.8131ZM21.7241 24.4768L20.4351 24.9905L17.069 23.46V22.622C17.5867 22.2601 18.0037 21.7661 18.2747 21.1892C18.5964 21.1624 18.8965 21.0647 19.1597 20.9069C19.2579 21.8282 19.9542 22.5682 20.8574 22.723C21.0311 23.2314 21.3327 23.6792 21.7241 24.031V24.4768ZM14.9068 29.4828H15.0932L15.4033 31.0345H14.5967L14.9068 29.4828ZM15.1975 28.4483H14.8025L14.1719 27.1872L15 26.5245L15.8281 27.1872L15.1975 28.4483ZM9.56492 24.99L8.27586 24.4768V24.031C8.66733 23.6797 8.96888 23.2319 9.14214 22.7235C10.0458 22.5687 10.7421 21.8287 10.8398 20.9074C11.103 21.0652 11.4031 21.163 11.7248 21.1897C11.9958 21.7666 12.4128 22.2606 12.9305 22.6225V23.4605L9.56492 24.99ZM4.13793 21.7241V19.6201C4.8951 19.5403 5.60959 19.2642 6.2069 18.7944C6.8042 19.2647 7.51869 19.5403 8.27586 19.6201V21.7241C8.27586 22.8652 7.34796 23.7931 6.2069 23.7931C5.06583 23.7931 4.13793 22.8652 4.13793 21.7241ZM6.2069 15C8.20287 15 9.82759 16.6242 9.82759 18.6207V18.9084C9.52199 18.7303 9.17169 18.6207 8.7931 18.6207H8.7042C7.89879 18.6207 7.14162 18.3073 6.5726 17.7377L6.2069 17.3715L5.84119 17.7377C5.27167 18.3073 4.515 18.6207 3.70959 18.6207H3.62069C3.2421 18.6207 2.8918 18.7303 2.58621 18.9084V18.6207C2.58621 16.6242 4.21092 15 6.2069 15ZM11.4005 20.0401C11.0813 19.8635 10.8621 19.5279 10.8621 19.1379C10.8621 18.7568 11.0714 18.4267 11.3793 18.2472V19.6552C11.3793 19.785 11.3871 19.9133 11.4005 20.0401ZM9.31034 19.7989C9.61821 19.9784 9.82759 20.3085 9.82759 20.6897C9.82759 21.0708 9.61821 21.4009 9.31034 21.5804V19.7989ZM16.0345 23.6209L15 24.9998L13.9655 23.6209V23.1233C14.2933 23.2216 14.6406 23.2759 15 23.2759C15.3594 23.2759 15.7067 23.2216 16.0345 23.1233V23.6209ZM15 22.2414C13.574 22.2414 12.4138 21.0811 12.4138 19.6552V17.0457C13.3356 16.9614 14.2206 16.652 15 16.139C15.7794 16.652 16.6644 16.9614 17.5862 17.0457V19.6552C17.5862 21.0811 16.4259 22.2414 15 22.2414ZM13.2839 24.4361L14.2853 25.7717L12.5901 27.1276L11.6225 25.1918L13.2839 24.4361ZM15.7147 25.7717L16.7161 24.4361L18.378 25.1913L17.4104 27.1271L15.7147 25.7717ZM18.6207 19.6552V18.2472C18.9286 18.4267 19.1379 18.7568 19.1379 19.1379C19.1379 19.5279 18.9187 19.8635 18.5995 20.0401C18.6129 19.9133 18.6207 19.785 18.6207 19.6552ZM27.4138 18.6207V18.9084C27.1082 18.7303 26.7579 18.6207 26.3793 18.6207H21.2069C20.8283 18.6207 20.478 18.7303 20.1724 18.9084V18.6207C20.1724 16.6242 21.7971 15 23.7931 15C25.7891 15 27.4138 16.6242 27.4138 18.6207ZM20.6897 21.5804C20.3818 21.4009 20.1724 21.0708 20.1724 20.6897C20.1724 20.3085 20.3818 19.9784 20.6897 19.7989V21.5804ZM22.7586 24.6465C23.0829 24.7619 23.4299 24.8276 23.7931 24.8276C24.1563 24.8276 24.5033 24.7614 24.8276 24.6465V24.6553L23.7931 26.0348L22.7586 24.6553V24.6465ZM23.7931 23.7931C22.652 23.7931 21.7241 22.8652 21.7241 21.7241V19.6552H25.8621V21.7241C25.8621 22.8652 24.9342 23.7931 23.7931 23.7931ZM26.8966 21.5804V19.7994C27.2044 19.979 27.4138 20.309 27.4138 20.6902C27.4138 21.0713 27.2044 21.4009 26.8966 21.5804ZM26.8966 13.8476V15.1609C26.0719 14.4201 24.9859 13.9655 23.7931 13.9655C22.3313 13.9655 21.0263 14.6441 20.1724 15.7014V14.5671C20.1724 13.4612 19.5208 12.4779 18.528 12.0317L19.7845 11.5604C20.0727 12.357 20.8293 12.931 21.7241 12.931C22.619 12.931 23.3756 12.357 23.6633 11.5599L25.8896 12.3946C26.492 12.6206 26.8966 13.2041 26.8966 13.8476ZM21.7241 9.82759C20.5831 9.82759 19.6552 8.89968 19.6552 7.75862V5.65303C20.55 5.5707 21.4122 5.28985 22.1747 4.80267L22.1787 4.80671C22.6169 5.2449 23.187 5.53458 23.7931 5.64167V7.75862C23.7931 8.89968 22.8652 9.82759 21.7241 9.82759ZM24.8276 7.61491V5.83387C25.1355 6.01344 25.3448 6.34353 25.3448 6.72464C25.3448 7.10575 25.1355 7.43534 24.8276 7.61491ZM21.7241 1.03448C23.7201 1.03448 25.3448 2.65869 25.3448 4.65517V4.94284C25.0392 4.76478 24.6889 4.65517 24.3103 4.65517C23.7891 4.65517 23.2789 4.44353 22.9102 4.0753L22.307 3.47218L21.6936 3.88133C20.9344 4.38721 20.0504 4.65517 19.1379 4.65517C18.7593 4.65517 18.409 4.76478 18.1034 4.94284V4.65517C18.1034 2.65869 19.7282 1.03448 21.7241 1.03448ZM18.1034 6.72414C18.1034 6.34303 18.3128 6.01293 18.6207 5.83336V7.61441C18.3128 7.43534 18.1034 7.10525 18.1034 6.72414ZM21.7241 10.8621C22.0873 10.8621 22.4343 10.7959 22.7586 10.681V10.8621C22.7586 11.4326 22.2947 11.8966 21.7241 11.8966C21.1536 11.8966 20.6897 11.4326 20.6897 10.8621V10.681C21.0139 10.7959 21.361 10.8621 21.7241 10.8621ZM15.2043 11.3793C16.1989 11.3793 17.1217 11.8733 17.6731 12.701L17.7713 12.8487L17.9395 12.9048C18.6563 13.1432 19.1379 13.8115 19.1379 14.5666V17.3566C18.9776 17.2629 18.8048 17.1899 18.6207 17.1425V16.0345H18.1034C17.191 16.0345 16.307 15.7665 15.5478 15.2606L15 14.8954L14.4522 15.2606C13.693 15.7665 12.809 16.0345 11.8966 16.0345H11.3793V17.1425C11.1952 17.1904 11.0224 17.2629 10.8621 17.3566V15.5172C10.8621 13.2356 12.7184 11.3793 15 11.3793H15.2043ZM8.27586 9.82759C7.1348 9.82759 6.2069 8.89968 6.2069 7.75862V5.68965H10.3448V7.75862C10.3448 8.89968 9.41692 9.82759 8.27586 9.82759ZM11.3793 7.61491V5.83387C11.6872 6.01344 11.8966 6.34353 11.8966 6.72464C11.8966 7.10575 11.6872 7.43534 11.3793 7.61491ZM8.27586 1.03448C10.2718 1.03448 11.8966 2.65869 11.8966 4.65517V4.94284C11.591 4.76478 11.2407 4.65517 10.8621 4.65517H5.68965C5.31107 4.65517 4.96077 4.76478 4.65517 4.94284V4.65517C4.65517 2.65869 6.27989 1.03448 8.27586 1.03448ZM4.65517 6.72414C4.65517 6.34303 4.86454 6.01293 5.17241 5.83336V7.61441C4.86454 7.43534 4.65517 7.10525 4.65517 6.72414ZM8.27586 10.8621C8.63904 10.8621 8.98606 10.7959 9.31034 10.681V10.8621C9.31034 11.4326 8.84639 11.8966 8.27586 11.8966C7.70533 11.8966 7.24138 11.4326 7.24138 10.8621V10.681C7.56567 10.7959 7.91268 10.8621 8.27586 10.8621ZM4.1104 12.3946L6.33621 11.5599C6.62438 12.357 7.38104 12.931 8.27586 12.931C9.17068 12.931 9.92735 12.357 10.215 11.5599L11.2614 11.9524C10.3759 12.8808 9.82759 14.1352 9.82759 15.5172V15.7014C8.97368 14.6441 7.66871 13.9655 6.2069 13.9655C5.01406 13.9655 3.92805 14.4201 3.10345 15.1609V13.8476C3.10345 13.2041 3.50805 12.6206 4.1104 12.3946ZM2.58621 20.6897C2.58621 20.3085 2.79558 19.9784 3.10345 19.7989V21.5799C2.79558 21.4009 2.58621 21.0708 2.58621 20.6897ZM6.2069 24.8276C6.57008 24.8276 6.91709 24.7614 7.24138 24.6465V24.6553L6.2069 26.0348L5.17241 24.6553V24.6465C5.4967 24.7614 5.84372 24.8276 6.2069 24.8276ZM1.03448 30V27.8131C1.03448 27.1696 1.43908 26.5862 2.04144 26.3601L4.47409 25.4484L6.2069 27.7588L7.93491 25.4549L8.4668 25.6666C7.7023 26.3437 7.24138 27.3259 7.24138 28.3773V30H1.03448ZM8.27586 28.3773C8.27586 27.3658 8.87064 26.4419 9.79248 26.0229L10.68 25.6194L12.238 28.7344L13.3465 27.8477L13.9413 29.038L13.5415 31.0345H11.3793V28.9655H10.3448V31.0345H8.27586V28.3773ZM21.7241 31.0345H19.6552V28.9655H18.6207V31.0345H16.4585L16.0592 29.038L16.6543 27.8477L17.7625 28.7344L19.32 25.6194L20.2075 26.0229C21.1294 26.4419 21.7241 27.3663 21.7241 28.3773V31.0345ZM28.9655 30H22.7586V28.3773C22.7586 27.3259 22.2977 26.3432 21.5332 25.6666L22.0651 25.4544L23.7931 27.7588L25.5259 25.4484L27.9586 26.3606C28.5609 26.5862 28.9655 27.1696 28.9655 27.8131V30Z" fill="white"/>
</svg>
