<svg width="1651" height="1117" viewBox="0 0 1651 1117" fill="none" xmlns="http://www.w3.org/2000/svg">
<g opacity="0.1">
<path d="M1871.94 491.306C1739.55 511.181 1624.92 528.391 1568.3 394.692C1533.77 313.141 1443.12 324.363 1356.73 335.057C1283.37 344.137 1213.06 352.842 1182.56 304.143C1106.62 182.931 1060.97 171.959 1003.04 158.036C948.25 144.867 882.494 129.064 769.9 15.1476C760.349 5.48452 759.385 5.77598 758.116 6.15712C756.858 6.53546 755.33 6.99227 747.203 0.389549L747.517 0C755.437 6.43457 756.824 6.0198 757.967 5.67509C759.399 5.2435 760.487 4.91841 770.251 14.7945C882.746 128.61 948.426 144.397 1003.16 157.549C1061.19 171.497 1106.93 182.488 1182.98 303.874C1213.31 352.301 1283.46 343.616 1356.66 334.555C1443.23 323.839 1534.07 312.595 1568.76 394.493C1625.22 527.834 1739.67 510.651 1871.86 490.807C2026.88 467.532 2206.28 440.597 2345.4 648.067L2344.98 648.347C2206.05 441.143 2026.82 468.053 1871.94 491.306Z" fill="url(#paint0_linear_869_184)"/>
<path d="M1867.17 514.807C1729.8 535.431 1610.87 553.289 1552.11 414.525C1516.32 330.029 1422.35 341.66 1332.79 352.749C1256.66 362.174 1183.71 371.204 1152.02 320.63C1073.29 194.951 1025.96 183.576 965.908 169.143C909.059 155.481 840.838 139.083 724.032 20.9039C714.178 10.9354 713.211 11.2268 711.936 11.6108C710.602 12.0115 708.982 12.4992 700.505 5.60779L700.99 5.00806C709.153 11.6416 710.557 11.2212 711.715 10.8737C713.239 10.4169 714.4 10.0666 724.581 20.3658C841.236 138.391 909.339 154.757 966.09 168.397C1026.31 182.869 1073.78 194.279 1152.68 320.221C1184.1 370.38 1256.81 361.378 1332.7 351.987C1422.54 340.864 1516.8 329.194 1552.81 414.228C1611.34 552.44 1730 534.624 1867.05 514.048C2027.88 489.901 2214 461.96 2358.33 677.21L2357.69 677.639C2213.63 462.793 2027.77 490.695 1867.17 514.807Z" fill="url(#paint1_linear_869_184)"/>
<path d="M1862.4 538.312C1720.06 559.684 1596.82 578.186 1535.91 434.361C1498.88 346.92 1401.59 358.963 1308.86 370.442C1229.96 380.208 1154.35 389.569 1121.49 337.114C1039.96 206.968 990.951 195.192 928.775 180.246C869.872 166.091 799.187 149.102 678.166 26.6603C668.01 16.3863 667.037 16.6778 665.756 17.0645C664.347 17.4877 662.637 18.0006 653.804 10.8234L654.457 10.0134C662.864 16.846 664.285 16.42 665.457 16.0669C667.076 15.5792 668.307 15.2093 678.903 25.9289C799.716 148.16 870.247 165.113 929.019 179.238C991.428 194.237 1040.62 206.058 1122.37 336.559C1154.88 388.451 1230.17 379.132 1308.73 369.408C1401.84 357.881 1499.53 345.788 1536.87 433.955C1597.46 577.037 1720.33 558.591 1862.25 537.284C2028.88 512.266 2221.71 483.316 2371.26 706.351L2370.4 706.931C2221.21 484.442 2028.73 513.339 1862.4 538.312Z" fill="url(#paint2_linear_869_184)"/>
<path d="M1857.64 561.814C1710.32 583.934 1582.77 603.081 1519.72 454.195C1481.44 363.805 1380.82 376.26 1284.93 388.131C1203.26 398.243 1124.99 407.928 1090.96 353.596C1006.63 218.985 955.947 206.806 891.641 191.35C830.686 176.701 757.535 159.121 632.302 32.4139C621.846 21.8344 620.868 22.1286 619.582 22.5154C618.096 22.9638 616.294 23.5019 607.108 16.036L607.932 15.0159C616.583 22.0446 618.021 21.613 619.206 21.2571C620.918 20.7414 622.222 20.349 633.235 31.4918C758.208 157.933 831.163 175.465 891.952 190.075C956.547 205.598 1007.46 217.834 1092.07 352.895C1125.66 406.521 1203.52 396.883 1284.77 386.825C1381.14 374.895 1482.26 362.376 1520.93 453.679C1583.58 601.629 1710.66 582.553 1857.45 560.514C2029.88 534.624 2229.42 504.665 2384.2 735.486L2383.11 736.214C2228.8 506.092 2029.69 535.983 1857.64 561.814Z" fill="url(#paint3_linear_869_184)"/>
<path d="M1852.87 585.318C1700.57 608.184 1568.72 627.981 1503.52 474.028C1464 380.693 1360.06 393.562 1260.99 405.823C1176.56 416.277 1095.64 426.293 1060.43 370.08C973.301 231.005 920.938 218.422 854.508 202.456C791.499 187.311 715.884 169.137 586.436 38.1701C575.68 27.2851 574.694 27.5822 573.402 27.9689C571.841 28.4369 569.946 29.0058 560.406 21.2513L561.399 20.021C570.291 27.2487 571.748 26.8115 572.945 26.4528C574.753 25.9119 576.126 25.4971 587.557 37.0575C716.689 167.708 792.068 185.823 854.878 200.918C921.659 216.967 974.295 229.618 1061.76 369.236C1096.44 424.594 1176.87 414.64 1260.8 404.251C1360.44 391.914 1464.99 378.972 1504.98 473.409C1569.7 626.229 1700.99 606.517 1852.64 583.752C2030.88 556.991 2237.14 526.023 2397.12 764.629L2395.82 765.509C2236.38 527.741 2030.65 558.627 1852.87 585.318Z" fill="url(#paint4_linear_869_184)"/>
<path d="M1848.11 608.823C1690.83 632.437 1554.67 652.879 1487.33 493.864C1446.56 397.584 1339.29 410.862 1237.06 423.518C1149.85 434.314 1066.28 444.658 1029.89 386.567C939.968 243.028 885.93 230.039 817.372 213.563C752.309 197.925 674.231 179.162 540.568 43.9294C529.506 32.739 528.52 33.0361 527.222 33.4256C525.586 33.9161 523.601 34.513 513.706 26.4726L514.869 25.0349C524.008 32.4588 525.476 32.0188 526.69 31.6544C528.593 31.0827 530.039 30.6483 541.882 42.6319C675.175 177.489 752.976 196.19 817.809 211.769C886.776 228.343 941.136 241.408 1031.46 385.587C1067.22 442.679 1150.22 432.405 1236.83 421.683C1339.73 408.945 1447.71 395.577 1489.03 493.147C1555.81 650.836 1691.32 630.495 1847.83 606.996C2031.87 579.363 2244.84 547.39 2410.05 793.775L2408.52 794.804C2243.97 549.391 2031.61 581.272 1848.11 608.823Z" fill="url(#paint5_linear_869_184)"/>
<path d="M1843.34 632.325C1681.09 656.685 1540.62 677.773 1471.14 513.698C1429.12 414.469 1318.52 428.159 1213.13 441.208C1123.15 452.345 1036.93 463.02 999.358 403.046C906.637 255.04 850.923 241.649 780.241 224.663C713.124 208.532 632.58 189.175 494.704 49.683C483.343 38.1871 482.351 38.4841 481.045 38.8765C479.333 39.3921 477.256 40.0143 467.007 31.688L468.338 30.0374C477.719 37.6602 479.207 37.2146 480.431 36.8447C482.427 36.2449 483.946 35.7881 496.207 48.1948C633.659 187.258 713.886 206.542 780.737 222.606C851.89 239.707 907.974 253.187 1001.15 401.922C1038.01 460.75 1123.57 450.156 1212.87 439.103C1319.04 425.962 1430.44 412.171 1473.08 512.874C1541.93 675.436 1681.65 654.462 1843.02 630.232C2032.87 601.727 2252.55 568.745 2422.98 822.916L2421.23 824.095C2251.55 571.04 2032.57 603.916 1843.34 632.325Z" fill="url(#paint6_linear_869_184)"/>
<path d="M1838.57 655.827C1671.35 680.935 1526.57 702.671 1454.94 533.531C1411.67 431.357 1297.76 445.459 1189.19 458.9C1096.45 470.382 1007.57 481.382 968.822 419.533C873.304 267.063 815.914 253.269 743.102 235.77C673.93 219.145 590.923 199.194 448.832 55.4393C437.168 43.6379 436.171 43.9378 434.859 44.3329C433.071 44.8682 430.902 45.5212 420.3 36.9063L421.802 35.0454C431.426 42.8672 432.931 42.416 434.17 42.0405C436.26 41.4099 437.849 40.9335 450.528 53.7606C592.139 197.036 674.788 216.9 743.659 233.449C816.998 251.077 874.806 264.969 970.839 418.264C1008.78 478.823 1096.92 467.913 1188.89 456.529C1298.33 442.982 1413.16 428.767 1457.13 532.603C1528.04 700.037 1671.97 678.427 1838.21 653.467C2033.85 624.094 2260.26 590.103 2435.91 852.056L2433.93 853.385C2259.13 592.689 2033.52 626.56 1838.57 655.827Z" fill="url(#paint7_linear_869_184)"/>
<path d="M1833.81 679.332C1661.61 705.185 1512.52 727.569 1438.75 553.367C1394.23 448.248 1276.99 462.762 1165.26 476.592C1069.74 488.416 978.214 499.747 938.29 436.018C839.975 279.08 780.909 264.885 705.97 246.873C634.747 229.756 549.27 209.213 402.97 61.1957C391.004 49.0889 390.003 49.3887 388.686 49.7839C386.823 50.3444 384.561 51.0226 373.606 42.119L375.279 40.0508C385.147 48.0688 386.666 47.612 387.918 47.2364C390.104 46.5806 391.766 46.079 404.859 59.3293C550.629 206.811 635.705 227.259 706.595 244.295C782.122 262.447 841.653 276.754 940.54 434.605C979.565 496.899 1070.27 485.67 1164.93 473.952C1277.63 460.002 1395.89 445.364 1441.19 552.33C1514.16 724.634 1662.3 702.391 1833.41 676.703C2034.86 646.458 2267.98 611.458 2448.85 881.194L2446.65 882.674C2266.72 614.336 2034.49 649.202 1833.81 679.332Z" fill="url(#paint8_linear_869_184)"/>
<path d="M1829.04 702.836C1651.86 729.438 1498.47 752.466 1422.55 573.203C1376.79 465.139 1256.23 480.062 1141.32 494.287C1043.04 506.453 948.854 518.112 907.753 452.502C806.641 291.1 745.899 276.501 668.833 257.98C595.553 240.369 507.616 219.235 357.101 66.9521C344.832 54.5369 343.826 54.8424 342.503 55.2376C340.564 55.8205 338.209 56.5267 326.901 47.3373L328.743 45.0588C338.854 53.273 340.39 52.8134 341.657 52.4322C343.935 51.7484 345.67 51.2272 359.178 64.895C509.107 216.587 596.607 237.614 669.517 255.138C747.23 273.817 808.485 288.538 910.227 450.947C950.337 514.973 1043.62 503.426 1140.96 491.378C1256.93 477.024 1378.61 461.96 1425.24 572.063C1500.27 749.235 1652.62 726.361 1828.6 699.941C2035.85 668.825 2275.68 632.816 2461.77 910.337L2459.35 911.965C2274.29 635.988 2035.44 671.846 1829.04 702.836H1829.04Z" fill="url(#paint9_linear_869_184)"/>
<path d="M1824.27 726.338C1642.12 753.688 1484.42 777.364 1406.36 593.034C1359.35 482.024 1235.46 497.362 1117.39 511.977C1016.34 524.487 919.498 536.474 877.222 468.986C773.313 303.117 710.893 288.115 631.703 269.086C556.371 250.979 465.965 229.254 311.238 72.7084C298.666 59.9906 297.657 60.2933 296.326 60.694C294.311 61.2994 291.867 62.0336 280.203 52.5555L282.215 50.0669C292.571 58.48 294.123 58.012 295.404 57.6281C297.778 56.9162 299.58 56.3725 313.508 70.4636C467.596 226.362 557.52 247.975 632.451 265.984C712.35 285.186 775.328 300.32 879.927 467.291C921.124 533.052 1016.97 521.186 1117 508.802C1236.23 494.044 1361.34 478.557 1409.3 591.792C1486.39 773.835 1642.96 750.331 1823.8 723.18C2036.85 691.192 2283.4 654.176 2474.71 939.478L2472.06 941.257C2281.88 657.637 2036.4 694.493 1824.27 726.341V726.338Z" fill="url(#paint10_linear_869_184)"/>
<path d="M1819.51 749.843C1632.38 777.938 1470.37 802.261 1390.17 612.87C1341.9 498.914 1214.7 514.662 1093.46 529.669C989.634 542.521 890.145 554.838 846.689 485.471C739.981 315.14 675.887 299.734 594.57 280.19C517.184 261.592 424.311 239.273 265.372 78.4647C252.501 65.4414 251.483 65.7469 250.146 66.1477C248.056 66.7754 245.52 67.5377 233.502 57.7738L235.683 55.075C246.279 63.6871 247.851 63.2134 249.143 62.8267C251.609 62.0868 253.487 61.5207 267.83 76.0349C426.08 236.14 518.425 258.336 595.377 276.829C677.465 296.556 742.164 312.107 849.618 483.635C891.902 551.131 990.323 538.945 1093.03 526.233C1215.53 511.066 1344.06 495.156 1393.34 611.528C1472.5 798.441 1633.28 774.303 1818.99 746.421C2037.84 713.562 2291.11 675.537 2487.63 968.624L2484.76 970.555C2289.46 679.292 2037.36 717.143 1819.51 749.851L1819.51 749.843Z" fill="url(#paint11_linear_869_184)"/>
<path d="M1814.74 773.345C1622.64 802.188 1456.32 827.156 1373.97 632.703C1324.46 515.799 1193.93 531.959 1069.52 547.359C962.932 560.553 860.786 573.198 816.153 501.952C706.648 327.154 640.879 311.345 557.431 291.293C477.991 272.199 382.658 249.289 219.504 84.2182C206.329 70.8895 205.309 71.195 203.967 71.5985C201.801 72.2487 199.172 73.039 186.802 62.9864L189.15 60.0774C199.99 68.8857 201.579 68.4093 202.885 68.0169C205.447 67.249 207.394 66.6605 222.155 81.5951C384.561 245.912 479.333 268.688 558.305 287.667C642.58 307.92 709.002 323.883 819.312 499.971C862.68 569.198 963.672 556.696 1069.06 543.651C1194.83 528.083 1326.79 511.747 1377.4 631.249C1458.62 823.033 1623.61 798.262 1814.18 769.651C2038.84 735.923 2298.82 696.889 2500.57 997.759L2497.47 999.838C2297.05 700.936 2038.32 739.782 1814.74 773.347L1814.74 773.345Z" fill="url(#paint12_linear_869_184)"/>
<path d="M1809.98 796.85C1612.9 826.438 1442.27 852.059 1357.77 652.54C1307.02 532.69 1173.16 549.259 1045.59 565.054C936.227 578.593 831.43 591.563 785.62 518.437C673.317 339.174 605.869 322.962 520.297 302.397C438.803 282.81 341.004 259.305 173.638 89.9748C160.161 76.3406 159.135 76.6489 157.79 77.0552C155.548 77.7278 152.829 78.5462 140.106 68.2049L142.625 65.0857C153.709 74.093 155.312 73.6109 156.632 73.213C159.286 72.4143 161.307 71.8089 176.482 87.1611C343.05 255.685 440.246 279.046 521.236 298.51C607.697 319.29 675.842 335.668 789.008 516.31C833.461 587.272 937.025 574.451 1045.1 561.074C1174.13 545.1 1309.52 528.341 1361.45 650.979C1444.74 847.634 1613.94 822.229 1809.38 792.887C2039.84 758.287 2306.53 718.245 2513.5 1026.9L2510.18 1029.13C2304.63 722.583 2039.28 762.421 1809.98 796.847V796.85Z" fill="url(#paint13_linear_869_184)"/>
<path d="M1805.21 820.351C1603.15 850.688 1428.22 876.951 1341.58 672.373C1289.58 549.578 1152.4 566.559 1021.66 582.743C909.527 596.624 802.076 609.925 755.089 534.918C639.99 351.188 570.866 334.575 483.167 313.5C399.619 293.417 299.356 269.324 127.775 95.7281C113.998 81.7884 112.967 82.0967 111.613 82.503C109.295 83.2008 106.484 84.0444 93.405 73.4173L96.0955 70.0879C107.423 79.2913 109.043 78.8065 110.377 78.4057C113.126 77.579 115.217 76.9512 130.81 92.7266C301.536 265.457 401.157 289.401 484.168 309.35C572.814 330.654 642.683 347.447 758.707 532.648C804.248 605.342 910.382 592.204 1021.14 578.494C1153.44 562.117 1292.25 544.934 1345.51 670.706C1430.86 872.229 1604.28 846.193 1804.58 816.119C2040.84 780.648 2314.25 739.6 2526.43 1056.03L2522.89 1058.42C2312.22 744.229 2040.24 785.065 1805.22 820.348L1805.21 820.351Z" fill="url(#paint14_linear_869_184)"/>
<path d="M1800.45 843.856C1593.41 874.938 1414.17 901.848 1325.39 692.209C1272.14 566.469 1131.63 583.861 997.719 600.438C882.819 614.661 772.717 628.292 724.55 551.408C606.654 363.211 535.854 346.197 446.028 324.606C360.425 304.033 257.696 279.343 81.9033 101.487C67.8235 87.242 66.7893 87.5531 65.4272 87.9623C63.0339 88.6825 60.1304 89.5513 46.7007 78.6383L49.5593 75.1016C61.1309 84.504 62.7649 84.0107 64.1157 83.6072C66.9602 82.7524 69.1267 82.1022 85.1318 98.298C260.017 275.237 362.062 299.765 447.093 320.201C537.928 342.03 609.521 359.237 728.398 548.998C775.023 623.427 883.727 609.969 997.164 595.926C1132.73 579.145 1274.97 561.536 1329.56 690.441C1416.97 896.834 1594.6 870.169 1799.76 839.363C2041.83 803.02 2321.95 760.963 2539.36 1085.18L2535.59 1087.71C2319.8 765.881 2041.19 807.712 1800.44 843.856H1800.45Z" fill="url(#paint15_linear_869_184)"/>
<path d="M3.0293 80.1042C14.8447 89.7029 16.4983 89.2068 17.8604 88.7976C20.7974 87.9148 23.0337 87.2422 39.4592 103.861C218.503 285.01 322.972 310.118 410.024 331.038C503.045 353.394 576.362 371.016 698.094 565.334C745.807 641.495 857.081 627.721 973.2 613.347C1112.03 596.159 1257.7 578.127 1313.62 710.168C1403.09 921.432 1584.93 894.133 1794.96 862.596C2042.83 825.385 2329.67 782.318 2552.29 1114.32L2548.3 1117C2327.38 787.531 2042.15 830.354 1795.68 867.361C1583.67 899.192 1400.11 926.749 1309.19 712.045C1254.69 583.357 1110.86 601.161 973.786 618.131C856.117 632.695 743.36 646.654 694.017 567.893C573.321 375.231 500.845 357.814 408.892 335.713C321.235 314.644 216.043 289.362 36.0374 107.244C21.655 92.6903 20.6152 93.0042 19.2476 93.4134C16.7812 94.1532 13.7856 95.0528 0 83.8512L3.02661 80.1042H3.0293Z" fill="url(#paint16_linear_869_184)"/>
</g>
<defs>
<linearGradient id="paint0_linear_869_184" x1="1637.87" y1="241.832" x2="990.379" y2="824.095" gradientUnits="userSpaceOnUse">
<stop offset="0.13" stop-color="white"/>
<stop offset="1" stop-color="#58595B"/>
</linearGradient>
<linearGradient id="paint1_linear_869_184" x1="1638.85" y1="242.919" x2="991.352" y2="825.183" gradientUnits="userSpaceOnUse">
<stop offset="0.13" stop-color="white"/>
<stop offset="1" stop-color="#58595B"/>
</linearGradient>
<linearGradient id="paint2_linear_869_184" x1="1639.83" y1="244.004" x2="992.327" y2="826.273" gradientUnits="userSpaceOnUse">
<stop offset="0.13" stop-color="white"/>
<stop offset="1" stop-color="#58595B"/>
</linearGradient>
<linearGradient id="paint3_linear_869_184" x1="1640.81" y1="245.091" x2="993.31" y2="827.358" gradientUnits="userSpaceOnUse">
<stop offset="0.13" stop-color="white"/>
<stop offset="1" stop-color="#58595B"/>
</linearGradient>
<linearGradient id="paint4_linear_869_184" x1="1641.78" y1="246.178" x2="994.286" y2="828.445" gradientUnits="userSpaceOnUse">
<stop offset="0.13" stop-color="white"/>
<stop offset="1" stop-color="#58595B"/>
</linearGradient>
<linearGradient id="paint5_linear_869_184" x1="1642.76" y1="247.266" x2="995.264" y2="829.532" gradientUnits="userSpaceOnUse">
<stop offset="0.13" stop-color="white"/>
<stop offset="1" stop-color="#58595B"/>
</linearGradient>
<linearGradient id="paint6_linear_869_184" x1="1643.74" y1="248.353" x2="996.239" y2="830.617" gradientUnits="userSpaceOnUse">
<stop offset="0.13" stop-color="white"/>
<stop offset="1" stop-color="#58595B"/>
</linearGradient>
<linearGradient id="paint7_linear_869_184" x1="1644.71" y1="249.44" x2="997.217" y2="831.707" gradientUnits="userSpaceOnUse">
<stop offset="0.13" stop-color="white"/>
<stop offset="1" stop-color="#58595B"/>
</linearGradient>
<linearGradient id="paint8_linear_869_184" x1="1645.69" y1="250.528" x2="998.196" y2="832.792" gradientUnits="userSpaceOnUse">
<stop offset="0.13" stop-color="white"/>
<stop offset="1" stop-color="#58595B"/>
</linearGradient>
<linearGradient id="paint9_linear_869_184" x1="1646.67" y1="251.615" x2="999.173" y2="833.879" gradientUnits="userSpaceOnUse">
<stop offset="0.13" stop-color="white"/>
<stop offset="1" stop-color="#58595B"/>
</linearGradient>
<linearGradient id="paint10_linear_869_184" x1="1647.65" y1="252.7" x2="1000.15" y2="834.966" gradientUnits="userSpaceOnUse">
<stop offset="0.13" stop-color="white"/>
<stop offset="1" stop-color="#58595B"/>
</linearGradient>
<linearGradient id="paint11_linear_869_184" x1="1648.63" y1="253.787" x2="1001.13" y2="836.054" gradientUnits="userSpaceOnUse">
<stop offset="0.13" stop-color="white"/>
<stop offset="1" stop-color="#58595B"/>
</linearGradient>
<linearGradient id="paint12_linear_869_184" x1="1649.6" y1="254.874" x2="1002.11" y2="837.141" gradientUnits="userSpaceOnUse">
<stop offset="0.13" stop-color="white"/>
<stop offset="1" stop-color="#58595B"/>
</linearGradient>
<linearGradient id="paint13_linear_869_184" x1="1650.58" y1="255.962" x2="1003.08" y2="838.229" gradientUnits="userSpaceOnUse">
<stop offset="0.13" stop-color="white"/>
<stop offset="1" stop-color="#58595B"/>
</linearGradient>
<linearGradient id="paint14_linear_869_184" x1="1651.56" y1="257.049" x2="1004.06" y2="839.316" gradientUnits="userSpaceOnUse">
<stop offset="0.13" stop-color="white"/>
<stop offset="1" stop-color="#58595B"/>
</linearGradient>
<linearGradient id="paint15_linear_869_184" x1="1652.54" y1="258.136" x2="1005.04" y2="840.4" gradientUnits="userSpaceOnUse">
<stop offset="0.13" stop-color="white"/>
<stop offset="1" stop-color="#58595B"/>
</linearGradient>
<linearGradient id="paint16_linear_869_184" x1="1653.52" y1="259.224" x2="1006.01" y2="841.491" gradientUnits="userSpaceOnUse">
<stop offset="0.13" stop-color="white"/>
<stop offset="1" stop-color="#58595B"/>
</linearGradient>
</defs>
</svg>
