<svg width="833" height="601" viewBox="0 0 833 601" fill="none" xmlns="http://www.w3.org/2000/svg">
<path fill-rule="evenodd" clip-rule="evenodd" d="M466.498 2.49997C359.112 32.9267 456.438 199.904 374.469 260.206C320.503 299.908 152.175 157.136 106.498 202.318C63.869 244.484 291.906 313.86 269.493 364.045C230.216 451.988 -53.7637 477.128 10.3953 556.403C75.1431 636.405 239.744 486.501 364.266 481.146C403.917 479.441 420.001 522.354 454.355 537.309C512.632 562.679 568.075 594.536 635.174 599.08C735.075 605.844 832.848 584.863 889.998 523C944.869 463.603 855.57 436.278 852.299 364.045C849.197 295.531 961.752 69.426 889.998 27C800.845 -25.7141 682.355 237.145 578.776 202.318C491.861 173.093 555.599 -22.7459 466.498 2.49997Z" fill="#0079EC" fill-opacity="0.1"/>
</svg>
