<svg width="23" height="23" viewBox="0 0 23 23" fill="none" xmlns="http://www.w3.org/2000/svg">
<path d="M21.49 16.1744C21.451 16.1414 17.018 12.9744 15.815 13.1744C15.237 13.2744 14.906 13.6744 14.244 14.4604C14.137 14.5874 13.881 14.8924 13.682 15.1084C13.2632 14.9712 12.8549 14.8041 12.46 14.6084C10.421 13.6158 8.77357 11.9684 7.781 9.92941C7.58535 9.53454 7.41825 9.12616 7.281 8.70741C7.499 8.50741 7.804 8.25141 7.934 8.14241C8.719 7.48341 9.113 7.15241 9.215 6.57441C9.424 5.37441 6.251 0.939406 6.215 0.899406C6.07062 0.696269 5.88319 0.527491 5.66608 0.405111C5.44898 0.28273 5.20755 0.209761 4.959 0.191406C3.673 0.191406 0 4.95541 0 5.75841C0 5.80541 0.0670004 10.5454 5.912 16.4904C11.851 22.3294 16.591 22.3914 16.638 22.3914C17.438 22.3914 22.205 18.7184 22.205 17.4324C22.187 17.1821 22.1136 16.939 21.9901 16.7205C21.8667 16.5021 21.6962 16.3139 21.491 16.1694L21.49 16.1744ZM16.557 20.9114C15.91 20.8584 11.932 20.3334 6.957 15.4474C2.046 10.4474 1.535 6.45841 1.484 5.84041C2.45482 4.31789 3.62712 2.93367 4.969 1.72541C4.999 1.75541 5.038 1.79941 5.088 1.85741C6.11652 3.2615 7.00256 4.7646 7.733 6.34441C7.49544 6.58328 7.24436 6.80832 6.981 7.01841C6.57259 7.32977 6.19759 7.68266 5.862 8.07141L5.682 8.32341L5.735 8.62341C5.89162 9.30308 6.13178 9.96075 6.45 10.5814C7.58836 12.9189 9.47728 14.8075 11.815 15.9454C12.4346 16.2636 13.0913 16.5038 13.77 16.6604L14.07 16.7134L14.322 16.5334C14.7121 16.1961 15.0663 15.8195 15.379 15.4094C15.611 15.1324 15.921 14.7634 16.038 14.6584C17.623 15.388 19.1306 16.2751 20.538 17.3064C20.599 17.3584 20.638 17.3984 20.671 17.4244C19.4625 18.7662 18.0779 19.9381 16.555 20.9084L16.557 20.9114Z" fill="#FF5E14"/>
</svg>
