<svg width="81" height="73" viewBox="0 0 81 73" fill="none" xmlns="http://www.w3.org/2000/svg">
<path d="M2.61772 3.23855C1.72816 3.23855 0.998047 2.51683 0.998047 1.61887C0.998047 0.729306 1.71976 -0.000808716 2.61772 -0.000808716C3.51568 -0.000808716 4.23739 0.720914 4.23739 1.61887C4.23739 2.50844 3.50729 3.23855 2.61772 3.23855Z" fill="#4E5AFF" fill-opacity="0.49"/>
<path d="M17.8404 3.23855C16.9508 3.23855 16.2207 2.51683 16.2207 1.61887C16.2207 0.729306 16.9424 -0.000808716 17.8404 -0.000808716C18.7299 -0.000808716 19.46 0.720914 19.46 1.61887C19.4517 2.50844 18.7299 3.23855 17.8404 3.23855Z" fill="#4E5AFF" fill-opacity="0.49"/>
<path d="M33.0552 3.23855C32.1657 3.23855 31.4355 2.51683 31.4355 1.61887C31.4355 0.729306 32.1573 -0.000808716 33.0552 -0.000808716C33.9448 -0.000808716 34.6749 0.720914 34.6749 1.61887C34.6749 2.50844 33.9532 3.23855 33.0552 3.23855Z" fill="#4E5AFF" fill-opacity="0.49"/>
<path d="M48.2799 3.23855C47.3903 3.23855 46.6602 2.51683 46.6602 1.61887C46.6602 0.729306 47.3819 -0.000808716 48.2799 -0.000808716C49.1694 -0.000808716 49.8996 0.720914 49.8996 1.61887C49.8996 2.50844 49.1694 3.23855 48.2799 3.23855Z" fill="#4E5AFF" fill-opacity="0.49"/>
<path d="M63.4947 3.23855C62.6052 3.23855 61.875 2.51683 61.875 1.61887C61.875 0.729306 62.5968 -0.000808716 63.4947 -0.000808716C64.3843 -0.000808716 65.1144 0.720914 65.1144 1.61887C65.1144 2.50844 64.3927 3.23855 63.4947 3.23855Z" fill="#4E5AFF" fill-opacity="0.49"/>
<path d="M78.7175 3.23855C77.8279 3.23855 77.0978 2.51683 77.0978 1.61887C77.0978 0.729306 77.8195 -0.000808716 78.7175 -0.000808716C79.6155 -0.000808716 80.3372 0.720914 80.3372 1.61887C80.3372 2.50844 79.6071 3.23855 78.7175 3.23855Z" fill="#4E5AFF" fill-opacity="0.49"/>
<path d="M2.61784 17.1191C1.72828 17.1191 0.998169 16.3974 0.998169 15.4994C0.998169 14.6099 1.71989 13.8798 2.61784 13.8798C3.5158 13.8798 4.23752 14.6015 4.23752 15.4994C4.23752 16.389 3.50741 17.1191 2.61784 17.1191Z" fill="#4E5AFF" fill-opacity="0.49"/>
<path d="M17.8405 17.1191C16.9509 17.1191 16.2208 16.3974 16.2208 15.4994C16.2208 14.6099 16.9425 13.8798 17.8405 13.8798C18.7301 13.8798 19.4602 14.6015 19.4602 15.4994C19.4518 16.389 18.7301 17.1191 17.8405 17.1191Z" fill="#4E5AFF" fill-opacity="0.49"/>
<path d="M33.0553 17.1191C32.1658 17.1191 31.4357 16.3974 31.4357 15.4994C31.4357 14.6099 32.1574 13.8798 33.0553 13.8798C33.9449 13.8798 34.675 14.6015 34.675 15.4994C34.675 16.389 33.9533 17.1191 33.0553 17.1191Z" fill="#4E5AFF" fill-opacity="0.49"/>
<path d="M48.28 17.1191C47.3904 17.1191 46.6603 16.3974 46.6603 15.4994C46.6603 14.6099 47.382 13.8798 48.28 13.8798C49.1696 13.8798 49.8997 14.6015 49.8997 15.4994C49.8997 16.389 49.1696 17.1191 48.28 17.1191Z" fill="#4E5AFF" fill-opacity="0.49"/>
<path d="M63.4948 17.1191C62.6053 17.1191 61.8751 16.3974 61.8751 15.4994C61.8751 14.6099 62.5969 13.8798 63.4948 13.8798C64.3844 13.8798 65.1145 14.6015 65.1145 15.4994C65.1145 16.389 64.3928 17.1191 63.4948 17.1191Z" fill="#4E5AFF" fill-opacity="0.49"/>
<path d="M78.7176 17.1191C77.828 17.1191 77.0979 16.3974 77.0979 15.4994C77.0979 14.6099 77.8196 13.8798 78.7176 13.8798C79.6156 13.8798 80.3373 14.6015 80.3373 15.4994C80.3373 16.389 79.6072 17.1191 78.7176 17.1191Z" fill="#4E5AFF" fill-opacity="0.49"/>
<path d="M2.61784 30.9913C1.72828 30.9913 0.998169 30.2696 0.998169 29.3716C0.998169 28.4821 1.71989 27.7519 2.61784 27.7519C3.5158 27.7519 4.23752 28.4737 4.23752 29.3716C4.23752 30.2696 3.50741 30.9913 2.61784 30.9913Z" fill="#4E5AFF" fill-opacity="0.49"/>
<path d="M17.8405 30.9913C16.9509 30.9913 16.2208 30.2696 16.2208 29.3716C16.2208 28.4821 16.9425 27.7519 17.8405 27.7519C18.7301 27.7519 19.4602 28.4737 19.4602 29.3716C19.4518 30.2696 18.7301 30.9913 17.8405 30.9913Z" fill="#4E5AFF" fill-opacity="0.49"/>
<path d="M33.0553 30.9913C32.1658 30.9913 31.4357 30.2696 31.4357 29.3716C31.4357 28.4821 32.1574 27.7519 33.0553 27.7519C33.9449 27.7519 34.675 28.4737 34.675 29.3716C34.675 30.2696 33.9533 30.9913 33.0553 30.9913Z" fill="#4E5AFF" fill-opacity="0.49"/>
<path d="M48.28 30.9913C47.3904 30.9913 46.6603 30.2696 46.6603 29.3716C46.6603 28.4821 47.382 27.7519 48.28 27.7519C49.1696 27.7519 49.8997 28.4737 49.8997 29.3716C49.8997 30.2696 49.1696 30.9913 48.28 30.9913Z" fill="#4E5AFF" fill-opacity="0.49"/>
<path d="M63.4948 30.9913C62.6053 30.9913 61.8751 30.2696 61.8751 29.3716C61.8751 28.4821 62.5969 27.7519 63.4948 27.7519C64.3844 27.7519 65.1145 28.4737 65.1145 29.3716C65.1145 30.2696 64.3928 30.9913 63.4948 30.9913Z" fill="#4E5AFF" fill-opacity="0.49"/>
<path d="M78.7176 30.9913C77.828 30.9913 77.0979 30.2696 77.0979 29.3716C77.0979 28.4821 77.8196 27.7519 78.7176 27.7519C79.6156 27.7519 80.3373 28.4737 80.3373 29.3716C80.3373 30.2696 79.6072 30.9913 78.7176 30.9913Z" fill="#4E5AFF" fill-opacity="0.49"/>
<path d="M2.61784 44.8719C1.72828 44.8719 0.998169 44.1502 0.998169 43.2522C0.998169 42.3626 1.71989 41.6325 2.61784 41.6325C3.5158 41.6325 4.23752 42.3542 4.23752 43.2522C4.23752 44.1418 3.50741 44.8719 2.61784 44.8719Z" fill="#4E5AFF" fill-opacity="0.49"/>
<path d="M17.8405 44.8719C16.9509 44.8719 16.2208 44.1502 16.2208 43.2522C16.2208 42.3626 16.9425 41.6325 17.8405 41.6325C18.7301 41.6325 19.4602 42.3542 19.4602 43.2522C19.4518 44.1418 18.7301 44.8719 17.8405 44.8719Z" fill="#4E5AFF" fill-opacity="0.49"/>
<path d="M33.0553 44.8719C32.1658 44.8719 31.4357 44.1502 31.4357 43.2522C31.4357 42.3626 32.1574 41.6325 33.0553 41.6325C33.9449 41.6325 34.675 42.3542 34.675 43.2522C34.675 44.1418 33.9533 44.8719 33.0553 44.8719Z" fill="#4E5AFF" fill-opacity="0.49"/>
<path d="M48.28 44.8719C47.3904 44.8719 46.6603 44.1502 46.6603 43.2522C46.6603 42.3626 47.382 41.6325 48.28 41.6325C49.1696 41.6325 49.8997 42.3542 49.8997 43.2522C49.8997 44.1418 49.1696 44.8719 48.28 44.8719Z" fill="#4E5AFF" fill-opacity="0.49"/>
<path d="M63.4948 44.8719C62.6053 44.8719 61.8751 44.1502 61.8751 43.2522C61.8751 42.3626 62.5969 41.6325 63.4948 41.6325C64.3844 41.6325 65.1145 42.3542 65.1145 43.2522C65.1145 44.1418 64.3928 44.8719 63.4948 44.8719Z" fill="#4E5AFF" fill-opacity="0.49"/>
<path d="M78.7176 44.8719C77.828 44.8719 77.0979 44.1502 77.0979 43.2522C77.0979 42.3626 77.8196 41.6325 78.7176 41.6325C79.6156 41.6325 80.3373 42.3542 80.3373 43.2522C80.3373 44.1418 79.6072 44.8719 78.7176 44.8719Z" fill="#4E5AFF" fill-opacity="0.49"/>
<path d="M2.61784 58.7525C1.72828 58.7525 0.998169 58.0307 0.998169 57.1328C0.998169 56.2432 1.71989 55.5131 2.61784 55.5131C3.5158 55.5131 4.23752 56.2348 4.23752 57.1328C4.23752 58.0223 3.50741 58.7525 2.61784 58.7525Z" fill="#4E5AFF" fill-opacity="0.49"/>
<path d="M17.8405 58.7525C16.9509 58.7525 16.2208 58.0307 16.2208 57.1328C16.2208 56.2432 16.9425 55.5131 17.8405 55.5131C18.7301 55.5131 19.4602 56.2348 19.4602 57.1328C19.4518 58.0223 18.7301 58.7525 17.8405 58.7525Z" fill="#4E5AFF" fill-opacity="0.49"/>
<path d="M33.0553 58.7525C32.1658 58.7525 31.4357 58.0307 31.4357 57.1328C31.4357 56.2432 32.1574 55.5131 33.0553 55.5131C33.9449 55.5131 34.675 56.2348 34.675 57.1328C34.675 58.0223 33.9533 58.7525 33.0553 58.7525Z" fill="#4E5AFF" fill-opacity="0.49"/>
<path d="M48.28 58.7525C47.3904 58.7525 46.6603 58.0307 46.6603 57.1328C46.6603 56.2432 47.382 55.5131 48.28 55.5131C49.1696 55.5131 49.8997 56.2348 49.8997 57.1328C49.8997 58.0223 49.1696 58.7525 48.28 58.7525Z" fill="#4E5AFF" fill-opacity="0.49"/>
<path d="M63.4948 58.7525C62.6053 58.7525 61.8751 58.0307 61.8751 57.1328C61.8751 56.2432 62.5969 55.5131 63.4948 55.5131C64.3844 55.5131 65.1145 56.2348 65.1145 57.1328C65.1145 58.0223 64.3928 58.7525 63.4948 58.7525Z" fill="#4E5AFF" fill-opacity="0.49"/>
<path d="M78.7176 58.7525C77.828 58.7525 77.0979 58.0307 77.0979 57.1328C77.0979 56.2432 77.8196 55.5131 78.7176 55.5131C79.6156 55.5131 80.3373 56.2348 80.3373 57.1328C80.3373 58.0223 79.6072 58.7525 78.7176 58.7525Z" fill="#4E5AFF" fill-opacity="0.49"/>
<path d="M2.61784 72.6246C1.72828 72.6246 0.998169 71.9029 0.998169 71.0049C0.998169 70.1154 1.71989 69.3853 2.61784 69.3853C3.5158 69.3853 4.23752 70.107 4.23752 71.0049C4.23752 71.9029 3.50741 72.6246 2.61784 72.6246Z" fill="#4E5AFF" fill-opacity="0.49"/>
<path d="M17.8405 72.6246C16.9509 72.6246 16.2208 71.9029 16.2208 71.0049C16.2208 70.1154 16.9425 69.3853 17.8405 69.3853C18.7301 69.3853 19.4602 70.107 19.4602 71.0049C19.4518 71.9029 18.7301 72.6246 17.8405 72.6246Z" fill="#4E5AFF" fill-opacity="0.49"/>
<path d="M33.0553 72.6246C32.1658 72.6246 31.4357 71.9029 31.4357 71.0049C31.4357 70.1154 32.1574 69.3853 33.0553 69.3853C33.9449 69.3853 34.675 70.107 34.675 71.0049C34.675 71.9029 33.9533 72.6246 33.0553 72.6246Z" fill="#4E5AFF" fill-opacity="0.49"/>
<path d="M48.28 72.6246C47.3904 72.6246 46.6603 71.9029 46.6603 71.0049C46.6603 70.1154 47.382 69.3853 48.28 69.3853C49.1696 69.3853 49.8997 70.107 49.8997 71.0049C49.8997 71.9029 49.1696 72.6246 48.28 72.6246Z" fill="#4E5AFF" fill-opacity="0.49"/>
<path d="M63.4948 72.6246C62.6053 72.6246 61.8751 71.9029 61.8751 71.0049C61.8751 70.1154 62.5969 69.3853 63.4948 69.3853C64.3844 69.3853 65.1145 70.107 65.1145 71.0049C65.1145 71.9029 64.3928 72.6246 63.4948 72.6246Z" fill="#4E5AFF" fill-opacity="0.49"/>
<path d="M78.7176 72.6246C77.828 72.6246 77.0979 71.9029 77.0979 71.0049C77.0979 70.1154 77.8196 69.3853 78.7176 69.3853C79.6156 69.3853 80.3373 70.107 80.3373 71.0049C80.3373 71.9029 79.6072 72.6246 78.7176 72.6246Z" fill="#4E5AFF" fill-opacity="0.49"/>
</svg>
