<svg width="37" height="32" viewBox="0 0 37 32" fill="none" xmlns="http://www.w3.org/2000/svg">
<path d="M12.5929 1.00012H4.19992C3.64705 0.990325 3.09804 1.09387 2.58672 1.30438C2.07541 1.5149 1.61263 1.82791 1.22692 2.22412C0.830039 2.60969 0.5164 3.07252 0.305364 3.58402C0.0943275 4.09553 -0.00962679 4.64487 -8.18407e-05 5.19812V13.5931C-0.00999625 14.146 0.0934991 14.6951 0.304017 15.2064C0.514535 15.7177 0.827609 16.1805 1.22392 16.5661C1.61001 16.9627 2.07329 17.2759 2.58514 17.4864C3.09699 17.6969 3.64656 17.8003 4.19992 17.7901H9.09992C9.37607 17.7888 9.64974 17.8422 9.90512 17.9473C10.1605 18.0523 10.3925 18.207 10.5878 18.4022C10.7831 18.5975 10.9377 18.8295 11.0428 19.0849C11.1478 19.3403 11.2012 19.614 11.1999 19.8901V20.5901C11.2114 21.3267 11.0718 22.0579 10.7897 22.7385C10.5076 23.419 10.0891 24.0346 9.55992 24.5471C9.04673 25.0761 8.43057 25.4942 7.74948 25.7758C7.06839 26.0574 6.33681 26.1963 5.59992 26.1841H4.19992C4.01619 26.1826 3.83411 26.2188 3.66488 26.2903C3.49565 26.3619 3.34286 26.4673 3.21592 26.6001C3.08322 26.7271 2.97794 26.8799 2.90657 27.0492C2.8352 27.2184 2.79924 27.4005 2.80092 27.5841V30.3841C2.7993 30.5678 2.83528 30.7498 2.90665 30.919C2.97802 31.0883 3.08327 31.2411 3.21592 31.3681C3.34286 31.5009 3.49565 31.6064 3.66488 31.6779C3.83411 31.7495 4.01619 31.7856 4.19992 31.7841H5.59992C7.09196 31.7887 8.56908 31.4872 9.93992 30.8981C11.2738 30.3369 12.4872 29.5241 13.5139 28.5041C14.5311 27.4761 15.3412 26.2621 15.8999 24.9281C16.4887 23.5576 16.7899 22.0808 16.7849 20.5891V5.19712C16.7876 4.64483 16.6807 4.09749 16.4706 3.58672C16.2605 3.07596 15.9512 2.6119 15.5607 2.22137C15.1701 1.83083 14.7061 1.52156 14.1953 1.31143C13.6846 1.1013 13.1372 0.994469 12.5849 0.997118L12.5929 1.00012Z" fill="#FF5E14"/>
<path d="M35.1539 2.22415C34.7682 1.82789 34.3054 1.51485 33.7941 1.30433C33.2828 1.09382 32.7337 0.9903 32.1809 1.00015H23.7859C23.2336 0.997372 22.6861 1.10411 22.1753 1.31419C21.6645 1.52428 21.2004 1.83354 20.8098 2.2241C20.4192 2.61466 20.11 3.07877 19.8999 3.5896C19.6898 4.10042 19.5831 4.64783 19.5859 5.20016V13.5952C19.5831 14.1475 19.6898 14.6949 19.8999 15.2057C20.11 15.7165 20.4192 16.1806 20.8098 16.5712C21.2004 16.9618 21.6645 17.271 22.1753 17.4811C22.6861 17.6912 23.2336 17.7979 23.7859 17.7952H28.6859C28.962 17.7938 29.2357 17.8472 29.4911 17.9523C29.7465 18.0574 29.9785 18.212 30.1738 18.4073C30.369 18.6025 30.5237 18.8346 30.6287 19.09C30.7338 19.3453 30.7872 19.619 30.7859 19.8952V20.5952C30.7859 22.0804 30.1959 23.5047 29.1457 24.555C28.0955 25.6052 26.6711 26.1952 25.1859 26.1952H23.7859C23.4161 26.2001 23.0628 26.3492 22.8014 26.6106C22.5399 26.8721 22.3908 27.2254 22.3859 27.5952V30.3952C22.3908 30.7649 22.5399 31.1182 22.8014 31.3797C23.0628 31.6412 23.4161 31.7902 23.7859 31.7952H25.1859C26.6779 31.7998 28.155 31.4982 29.5259 30.9092C32.2242 29.7843 34.369 27.6394 35.4939 24.9412C36.0826 23.5706 36.3839 22.0938 36.3789 20.6022V5.19715C36.3887 4.64419 36.2851 4.09508 36.0744 3.58373C35.8637 3.07239 35.5504 2.60967 35.1539 2.22415Z" fill="#FF5E14"/>
</svg>
