<svg width="80" height="73" viewBox="0 0 80 73" fill="none" xmlns="http://www.w3.org/2000/svg">
    
<g id="path-1"><path  d="M1.61967 3.23936C0.730108 3.23936 0 2.51764 0 1.61968C0 0.730115 0.721716 0 1.61967 0C2.51763 0 3.23935 0.721723 3.23935 1.61968C3.23935 2.50924 2.50924 3.23936 1.61967 3.23936Z" fill="#4E5AFF"/></g>
<g id="path-2"><path  d="M16.8432 3.23936C15.9536 3.23936 15.2235 2.51764 15.2235 1.61968C15.2235 0.730115 15.9452 0 16.8432 0C17.7327 0 18.4629 0.721723 18.4629 1.61968C18.4545 2.50924 17.7327 3.23936 16.8432 3.23936Z" fill="#4E5AFF"/></g>
<g id="path-3"><path  d="M32.058 3.23936C31.1684 3.23936 30.4383 2.51764 30.4383 1.61968C30.4383 0.730115 31.16 0 32.058 0C32.9475 0 33.6776 0.721723 33.6776 1.61968C33.6776 2.50924 32.9559 3.23936 32.058 3.23936Z" fill="#4E5AFF"/></g>
<g id="path-4"><path  d="M47.2812 3.23936C46.3917 3.23936 45.6615 2.51764 45.6615 1.61968C45.6615 0.730115 46.3833 0 47.2812 0C48.1708 0 48.9009 0.721723 48.9009 1.61968C48.9009 2.50924 48.1708 3.23936 47.2812 3.23936Z" fill="#4E5AFF"/></g>
<g id="path-5"><path  d="M62.4963 3.23936C61.6067 3.23936 60.8766 2.51764 60.8766 1.61968C60.8766 0.730115 61.5984 0 62.4963 0C63.3859 0 64.116 0.721723 64.116 1.61968C64.116 2.50924 63.3943 3.23936 62.4963 3.23936Z" fill="#4E5AFF"/></g>
<g id="path-6"><path  d="M77.7195 3.23936C76.8299 3.23936 76.0997 2.51764 76.0997 1.61968C76.0997 0.730115 76.8215 0 77.7195 0C78.6174 0 79.3392 0.721723 79.3392 1.61968C79.3392 2.50924 78.609 3.23936 77.7195 3.23936Z" fill="#4E5AFF"/></g>
<g id="path-7"><path  d="M1.61973 17.12C0.73017 17.12 6.10352e-05 16.3983 6.10352e-05 15.5003C6.10352e-05 14.6107 0.721777 13.8806 1.61973 13.8806C2.51769 13.8806 3.23941 14.6023 3.23941 15.5003C3.23941 16.3899 2.5093 17.12 1.61973 17.12Z" fill="#4E5AFF"/></g>
<g id="path-8"><path  d="M16.8432 17.12C15.9537 17.12 15.2236 16.3983 15.2236 15.5003C15.2236 14.6107 15.9453 13.8806 16.8432 13.8806C17.7328 13.8806 18.4629 14.6023 18.4629 15.5003C18.4545 16.3899 17.7328 17.12 16.8432 17.12Z" fill="#4E5AFF"/></g>
<g id="path-9"><path  d="M32.058 17.12C31.1685 17.12 30.4384 16.3983 30.4384 15.5003C30.4384 14.6107 31.1601 13.8806 32.058 13.8806C32.9476 13.8806 33.6777 14.6023 33.6777 15.5003C33.6777 16.3899 32.956 17.12 32.058 17.12Z" fill="#4E5AFF"/></g>
<g id="path-10"><path  d="M47.2813 17.12C46.3918 17.12 45.6616 16.3983 45.6616 15.5003C45.6616 14.6107 46.3834 13.8806 47.2813 13.8806C48.1709 13.8806 48.901 14.6023 48.901 15.5003C48.901 16.3899 48.1709 17.12 47.2813 17.12Z" fill="#4E5AFF"/></g>
<g id="path-11"><path  d="M62.4963 17.12C61.6067 17.12 60.8766 16.3983 60.8766 15.5003C60.8766 14.6107 61.5984 13.8806 62.4963 13.8806C63.3859 13.8806 64.116 14.6023 64.116 15.5003C64.116 16.3899 63.3943 17.12 62.4963 17.12Z" fill="#4E5AFF"/></g>
<g id="path-12"><path  d="M77.7196 17.12C76.83 17.12 76.0999 16.3982 76.0999 15.5003C76.0999 14.6107 76.8216 13.8806 77.7196 13.8806C78.6176 13.8806 79.3393 14.6023 79.3393 15.5003C79.3393 16.3898 78.6092 17.12 77.7196 17.12Z" fill="#4E5AFF"/></g>
<g id="path-13"><path  d="M1.61973 30.992C0.73017 30.992 6.10352e-05 30.2703 6.10352e-05 29.3724C6.10352e-05 28.4828 0.721777 27.7527 1.61973 27.7527C2.51769 27.7527 3.23941 28.4744 3.23941 29.3724C3.23941 30.2703 2.5093 30.992 1.61973 30.992Z" fill="#4E5AFF"/></g>
<g id="path-14"><path  d="M16.8432 30.992C15.9537 30.992 15.2236 30.2703 15.2236 29.3724C15.2236 28.4828 15.9453 27.7527 16.8432 27.7527C17.7328 27.7527 18.4629 28.4744 18.4629 29.3724C18.4545 30.2703 17.7328 30.992 16.8432 30.992Z" fill="#4E5AFF"/></g>
<g id="path-15"><path  d="M32.058 30.992C31.1685 30.992 30.4384 30.2703 30.4384 29.3724C30.4384 28.4828 31.1601 27.7527 32.058 27.7527C32.9476 27.7527 33.6777 28.4744 33.6777 29.3724C33.6777 30.2703 32.956 30.992 32.058 30.992Z" fill="#4E5AFF"/></g>
<g id="path-16"><path  d="M47.2813 30.992C46.3918 30.992 45.6616 30.2703 45.6616 29.3724C45.6616 28.4828 46.3834 27.7527 47.2813 27.7527C48.1709 27.7527 48.901 28.4744 48.901 29.3724C48.901 30.2703 48.1709 30.992 47.2813 30.992Z" fill="#4E5AFF"/></g>
<g id="path-17"><path  d="M62.4963 30.992C61.6067 30.992 60.8766 30.2703 60.8766 29.3724C60.8766 28.4828 61.5984 27.7527 62.4963 27.7527C63.3859 27.7527 64.116 28.4744 64.116 29.3724C64.116 30.2703 63.3943 30.992 62.4963 30.992Z" fill="#4E5AFF"/></g>
<g id="path-18"><path  d="M77.7196 30.992C76.83 30.992 76.0999 30.2703 76.0999 29.3724C76.0999 28.4828 76.8216 27.7527 77.7196 27.7527C78.6176 27.7527 79.3393 28.4744 79.3393 29.3724C79.3393 30.2703 78.6092 30.992 77.7196 30.992Z" fill="#4E5AFF"/></g>
<g id="path-19"><path  d="M1.61973 44.8727C0.73017 44.8727 6.10352e-05 44.1509 6.10352e-05 43.253C6.10352e-05 42.3634 0.721777 41.6333 1.61973 41.6333C2.51769 41.6333 3.23941 42.355 3.23941 43.253C3.23941 44.1426 2.5093 44.8727 1.61973 44.8727Z" fill="#4E5AFF"/></g>
<g id="path-20"><path  d="M16.8432 44.8727C15.9537 44.8727 15.2236 44.1509 15.2236 43.253C15.2236 42.3634 15.9453 41.6333 16.8432 41.6333C17.7328 41.6333 18.4629 42.355 18.4629 43.253C18.4545 44.1426 17.7328 44.8727 16.8432 44.8727Z" fill="#4E5AFF"/></g>
<g id="path-21"><path  d="M32.058 44.8727C31.1685 44.8727 30.4384 44.1509 30.4384 43.253C30.4384 42.3634 31.1601 41.6333 32.058 41.6333C32.9476 41.6333 33.6777 42.355 33.6777 43.253C33.6777 44.1426 32.956 44.8727 32.058 44.8727Z" fill="#4E5AFF"/></g>
<g id="path-22"><path  d="M47.2813 44.8727C46.3918 44.8727 45.6616 44.1509 45.6616 43.253C45.6616 42.3634 46.3834 41.6333 47.2813 41.6333C48.1709 41.6333 48.901 42.355 48.901 43.253C48.901 44.1426 48.1709 44.8727 47.2813 44.8727Z" fill="#4E5AFF"/></g>
<g id="path-23"><path  d="M62.4963 44.8727C61.6067 44.8727 60.8766 44.1509 60.8766 43.253C60.8766 42.3634 61.5984 41.6333 62.4963 41.6333C63.3859 41.6333 64.116 42.355 64.116 43.253C64.116 44.1426 63.3943 44.8727 62.4963 44.8727Z" fill="#4E5AFF"/></g>
<g id="path-24"><path  d="M77.7196 44.8727C76.83 44.8727 76.0999 44.1509 76.0999 43.253C76.0999 42.3634 76.8216 41.6333 77.7196 41.6333C78.6176 41.6333 79.3393 42.355 79.3393 43.253C79.3393 44.1426 78.6092 44.8727 77.7196 44.8727Z" fill="#4E5AFF"/></g>
<g id="path-25"><path  d="M1.61973 58.7533C0.73017 58.7533 6.10352e-05 58.0315 6.10352e-05 57.1336C6.10352e-05 56.244 0.721777 55.5139 1.61973 55.5139C2.51769 55.5139 3.23941 56.2356 3.23941 57.1336C3.23941 58.0232 2.5093 58.7533 1.61973 58.7533Z" fill="#4E5AFF"/></g>
<g id="path-26"><path  d="M16.8432 58.7533C15.9537 58.7533 15.2236 58.0315 15.2236 57.1336C15.2236 56.244 15.9453 55.5139 16.8432 55.5139C17.7328 55.5139 18.4629 56.2356 18.4629 57.1336C18.4545 58.0232 17.7328 58.7533 16.8432 58.7533Z" fill="#4E5AFF"/></g>
<g id="path-27"><path  d="M32.058 58.7533C31.1685 58.7533 30.4384 58.0315 30.4384 57.1336C30.4384 56.244 31.1601 55.5139 32.058 55.5139C32.9476 55.5139 33.6777 56.2356 33.6777 57.1336C33.6777 58.0232 32.956 58.7533 32.058 58.7533Z" fill="#4E5AFF"/></g>
<g id="path-28"><path  d="M47.2813 58.7533C46.3918 58.7533 45.6616 58.0315 45.6616 57.1336C45.6616 56.244 46.3834 55.5139 47.2813 55.5139C48.1709 55.5139 48.901 56.2356 48.901 57.1336C48.901 58.0232 48.1709 58.7533 47.2813 58.7533Z" fill="#4E5AFF"/></g>
<g id="path-29"><path  d="M62.4963 58.7533C61.6067 58.7533 60.8766 58.0315 60.8766 57.1336C60.8766 56.244 61.5984 55.5139 62.4963 55.5139C63.3859 55.5139 64.116 56.2356 64.116 57.1336C64.116 58.0232 63.3943 58.7533 62.4963 58.7533Z" fill="#4E5AFF"/></g>
<g id="path-30"><path  d="M77.7196 58.7533C76.83 58.7533 76.0999 58.0315 76.0999 57.1336C76.0999 56.244 76.8216 55.5139 77.7196 55.5139C78.6176 55.5139 79.3393 56.2356 79.3393 57.1336C79.3393 58.0232 78.6092 58.7533 77.7196 58.7533Z" fill="#4E5AFF"/></g>
<g id="path-31"><path  d="M1.61973 72.6253C0.73017 72.6253 6.10352e-05 71.9036 6.10352e-05 71.0057C6.10352e-05 70.1161 0.721777 69.386 1.61973 69.386C2.51769 69.386 3.23941 70.1077 3.23941 71.0057C3.23941 71.9036 2.5093 72.6253 1.61973 72.6253Z" fill="#4E5AFF"/></g>
<g id="path-32"><path  d="M16.8432 72.6253C15.9537 72.6253 15.2236 71.9036 15.2236 71.0057C15.2236 70.1161 15.9453 69.386 16.8432 69.386C17.7328 69.386 18.4629 70.1077 18.4629 71.0057C18.4545 71.9036 17.7328 72.6253 16.8432 72.6253Z" fill="#4E5AFF"/></g>
<g id="path-33"><path  d="M32.058 72.6253C31.1685 72.6253 30.4384 71.9036 30.4384 71.0057C30.4384 70.1161 31.1601 69.386 32.058 69.386C32.9476 69.386 33.6777 70.1077 33.6777 71.0057C33.6777 71.9036 32.956 72.6253 32.058 72.6253Z" fill="#4E5AFF"/></g>
<g id="path-34"><path  d="M47.2813 72.6253C46.3918 72.6253 45.6616 71.9036 45.6616 71.0057C45.6616 70.1161 46.3834 69.386 47.2813 69.386C48.1709 69.386 48.901 70.1077 48.901 71.0057C48.901 71.9036 48.1709 72.6253 47.2813 72.6253Z" fill="#4E5AFF"/></g>
<g id="path-35"><path  d="M62.4963 72.6253C61.6067 72.6253 60.8766 71.9036 60.8766 71.0057C60.8766 70.1161 61.5984 69.386 62.4963 69.386C63.3859 69.386 64.116 70.1077 64.116 71.0057C64.116 71.9036 63.3943 72.6253 62.4963 72.6253Z" fill="#4E5AFF"/></g>
<g id="path-36"><path  d="M77.7196 72.6253C76.83 72.6253 76.0999 71.9036 76.0999 71.0057C76.0999 70.1161 76.8216 69.386 77.7196 69.386C78.6176 69.386 79.3393 70.1077 79.3393 71.0057C79.3393 71.9036 78.6092 72.6253 77.7196 72.6253Z" fill="#4E5AFF"/></g>
</svg>
