<svg width="70" height="60" viewBox="0 0 70 60" fill="none" xmlns="http://www.w3.org/2000/svg">
<path d="M7.81228 1.05305C5.4849 0.4712 2.8084 1.40215 0.481012 1.63489C-0.100836 1.63489 -0.217205 2.56585 0.481012 2.68222C2.8084 2.79859 5.60127 2.68222 7.81228 2.10037C8.27795 1.86763 8.27795 1.16942 7.81228 1.05305Z" fill="black"/>
<path d="M21.7766 4.19485C20.1474 2.56568 17.5873 2.21657 15.4927 2.33294C15.0272 2.33294 15.0272 3.03116 15.4927 3.03116C16.6564 3.14753 17.7037 3.38027 18.751 3.72938C19.682 4.07849 20.4965 4.54396 21.4275 4.89307C21.7766 5.12581 22.1257 4.54396 21.7766 4.19485Z" fill="black"/>
<path d="M33.9957 13.2716C33.5303 12.2243 32.5993 11.2933 31.6684 10.5951C30.8538 9.78051 29.8064 9.08229 28.8755 8.50044C28.5264 8.2677 28.1773 8.73318 28.5264 8.96592C29.4573 9.66414 30.2719 10.4787 30.9701 11.2933C31.7847 12.1079 32.3666 13.1552 33.1812 13.9698C33.5301 14.4353 34.2283 13.8534 33.9957 13.2716Z" fill="black"/>
<path d="M36.323 20.4866C35.9739 19.9048 35.1591 20.3703 35.5084 20.9521C35.7411 21.534 36.0902 22.2322 36.323 22.814C36.5557 23.6286 36.4391 24.4432 36.7883 25.1414C36.9046 25.4905 37.4865 25.4905 37.6028 25.1414C38.1849 23.8613 37.0212 21.7667 36.323 20.4866Z" fill="black"/>
<path d="M39.4652 35.0325C39.4652 33.8688 39.4652 32.7051 39.2325 31.6578C39.1161 31.076 38.4179 31.076 38.4179 31.6578C38.3015 32.7051 38.3015 33.6361 38.3015 34.6834C38.3015 35.7308 38.0688 36.7781 38.4179 37.8254C38.5343 38.2907 39.3488 38.2907 39.4652 37.8254C39.6981 36.8944 39.5818 35.9635 39.4652 35.0325Z" fill="black"/>
<path d="M36.6721 45.2731C36.2066 46.4368 35.7412 47.6003 35.0429 48.764C34.4611 49.8115 33.6465 50.8589 33.5301 52.0226C33.4138 52.6044 34.2284 52.7208 34.5775 52.4878C35.5084 51.6734 35.9741 50.2768 36.4394 49.1131C37.0214 47.9494 37.3703 46.7859 37.6031 45.6222C37.7194 44.924 36.7883 44.6913 36.6721 45.2731Z" fill="black"/>
<path d="M31.4354 54.234C30.7372 55.0484 30.039 55.9795 29.3407 56.6777C28.9916 57.0268 28.5262 57.3759 28.0607 57.6087C27.5952 57.8414 27.3625 57.8414 27.0134 58.3069C26.7806 58.656 27.0134 59.1215 27.3625 59.2378C28.4098 59.4708 29.3408 58.4233 30.039 57.725C30.8536 56.7941 31.4354 55.7469 32.0172 54.5833C32.1338 54.234 31.6681 53.8848 31.4354 54.234Z" fill="black"/>
<path d="M22.4747 57.1428C21.8929 57.6083 21.1947 57.9574 20.4965 57.9574C19.9146 57.9574 19.2164 57.841 18.7509 58.3065C18.5182 58.5392 18.5182 58.8883 18.7509 59.1211C19.9146 60.2846 22.242 58.6556 22.9402 57.7245C23.1731 57.3755 22.824 56.9099 22.4747 57.1428Z" fill="black"/>
<path d="M15.0272 54.6988C14.0963 54.5826 13.0489 54.3497 12.118 54.0006C11.0706 53.5353 10.6052 52.7207 10.0233 51.7895C9.67421 51.3241 8.976 51.4404 8.85963 52.1386C8.74326 55.2806 12.6998 55.8625 15.0272 55.5134C15.3763 55.3972 15.3763 54.6988 15.0272 54.6988Z" fill="black"/>
<path d="M9.20915 47.0189C8.27819 45.2733 8.51093 43.5278 8.16182 41.6659C8.04545 41.2006 7.34724 41.2006 7.23087 41.6659C6.88176 43.6441 7.46361 45.7388 8.6273 47.368C8.86004 47.7171 9.32571 47.4843 9.20915 47.0189Z" fill="black"/>
<path d="M9.67415 27.0031C7.5795 28.9814 7.11403 31.8908 7.2304 34.5671C7.2304 35.0326 8.04498 35.0326 8.04498 34.5671C8.16135 32.1234 8.85957 29.6796 10.3724 27.7015C10.838 27.2359 10.1398 26.5376 9.67415 27.0031Z" fill="black"/>
<path d="M16.4242 18.6245C14.3296 19.6718 12.7004 21.6501 11.4203 23.6284C11.0712 24.0939 11.8858 24.5594 12.1186 24.0939C13.515 22.3483 15.2605 20.9519 16.8897 19.4391C17.3552 18.9736 16.8895 18.3918 16.4242 18.6245Z" fill="black"/>
<path d="M23.2891 11.8755C21.66 11.8755 19.7981 13.2719 18.7507 14.4356C18.2853 14.9011 18.9835 15.5993 19.449 15.1338C20.0308 14.552 20.729 14.0865 21.4272 13.7374C22.1254 13.3883 22.94 13.1556 23.6383 12.6901C23.9874 12.4573 23.6383 11.8755 23.2891 11.8755Z" fill="black"/>
<path d="M38.8835 6.98779C37.9525 6.98779 37.0215 7.3369 36.0906 7.45327C34.9269 7.68601 33.7632 7.80238 32.7159 8.26786C32.134 8.5006 32.3668 9.31518 32.9486 9.19881C33.9959 8.96607 35.1596 8.8497 36.207 8.73333C37.1379 8.61696 38.3016 8.61697 39.1162 8.03512C39.698 7.80238 39.4651 6.98779 38.8835 6.98779Z" fill="black"/>
<path d="M49.2399 5.82402C47.7271 5.47491 45.8652 5.82402 44.236 5.94039C43.6542 5.94039 43.6542 6.75498 44.236 6.75498C45.8652 6.87134 47.6107 7.22045 49.2399 6.87134C49.8215 6.75498 49.8215 5.94039 49.2399 5.82402Z" fill="black"/>
<path d="M60.0626 6.40572C59.2481 6.17298 58.4335 6.28935 57.6187 6.28935C56.8043 6.28935 55.8732 6.28935 55.0586 6.40572C54.4767 6.40572 54.4767 7.33667 55.0586 7.33667C55.8732 7.33667 56.8043 7.33667 57.6187 7.45304C58.4333 7.45304 59.2479 7.56941 60.0626 7.33667C60.5281 7.33667 60.5281 6.63845 60.0626 6.40572Z" fill="black"/>
<path d="M69.7206 6.75496C68.2078 5.24216 66.695 3.84573 65.066 2.56567C63.9024 1.63471 62.1566 -0.11083 60.6438 0.00553938C60.062 0.00553938 59.5965 0.703756 59.9456 1.2856C60.6438 2.4493 62.273 3.14751 63.3203 3.84573C64.6004 4.77669 65.8804 5.94038 67.1605 7.10407C64.8331 8.03503 62.5057 9.31509 60.2947 10.4788C59.5965 10.8279 60.062 12.108 60.8767 11.8752C63.786 10.9443 66.3461 9.08235 69.3717 8.50051C70.0697 8.38414 70.1863 7.33681 69.7206 6.75496Z" fill="black"/>
</svg>
