<svg width="60" height="57" viewBox="0 0 60 57" fill="none" xmlns="http://www.w3.org/2000/svg">
<path d="M28.0184 32.8861H40.0259C41.6839 32.8861 43.0278 31.5501 43.0278 29.902C43.0278 28.2539 41.6839 26.9179 40.0259 26.9179H31.0202V15.5783C31.0202 13.9302 29.6763 12.5942 28.0184 12.5942C26.3604 12.5942 25.0165 13.9302 25.0165 15.5783V29.902C25.0165 31.5501 26.3606 32.8861 28.0184 32.8861Z" fill="#FF5E14"/>
<path d="M0.878943 55.869C2.05124 57.034 3.9514 57.034 5.12356 55.869L13.1746 47.8656C23.0125 55.7237 37.0239 55.7237 46.8617 47.8656L54.9127 55.869C56.1053 57.0139 58.0056 56.9811 59.1573 55.7956C60.2809 54.6391 60.2809 52.8058 59.1573 51.6495L51.1063 43.6461C60.4333 32.0682 58.5527 15.1664 46.906 5.89465C35.2593 -3.37714 18.2569 -1.50774 8.92988 10.0701C1.02496 19.8827 1.02496 33.8333 8.92988 43.6461L0.878813 51.6495C-0.292959 52.8148 -0.292959 54.7038 0.878943 55.869ZM30.0181 6.01344C41.6234 6.01344 51.0313 15.3656 51.0313 26.9022C51.0313 38.4388 41.6234 47.791 30.0181 47.791C18.4129 47.791 9.00503 38.4388 9.00503 26.9022C9.01829 15.3711 18.4185 6.02662 30.0181 6.01344Z" fill="#FF5E14"/>
</svg>
