<svg width="292" height="219" viewBox="0 0 292 219" fill="none" xmlns="http://www.w3.org/2000/svg">
<circle cx="76" cy="216" r="216" fill="#01011C"/>
<path d="M83.06 103.56C83.22 99.28 84.62 95.98 87.26 93.66C89.9 91.34 93.48 90.18 98 90.18C101 90.18 103.56 90.7 105.68 91.74C107.84 92.78 109.46 94.2 110.54 96C111.66 97.8 112.22 99.82 112.22 102.06C112.22 104.7 111.56 106.86 110.24 108.54C108.92 110.18 107.38 111.3 105.62 111.9V112.14C107.9 112.9 109.7 114.16 111.02 115.92C112.34 117.68 113 119.94 113 122.7C113 125.18 112.42 127.38 111.26 129.3C110.14 131.18 108.48 132.66 106.28 133.74C104.12 134.82 101.54 135.36 98.54 135.36C93.74 135.36 89.9 134.18 87.02 131.82C84.18 129.46 82.68 125.9 82.52 121.14H92.48C92.52 122.9 93.02 124.3 93.98 125.34C94.94 126.34 96.34 126.84 98.18 126.84C99.74 126.84 100.94 126.4 101.78 125.52C102.66 124.6 103.1 123.4 103.1 121.92C103.1 120 102.48 118.62 101.24 117.78C100.04 116.9 98.1 116.46 95.42 116.46H93.5V108.12H95.42C97.46 108.12 99.1 107.78 100.34 107.1C101.62 106.38 102.26 105.12 102.26 103.32C102.26 101.88 101.86 100.76 101.06 99.96C100.26 99.16 99.16 98.76 97.76 98.76C96.24 98.76 95.1 99.22 94.34 100.14C93.62 101.06 93.2 102.2 93.08 103.56H83.06Z" fill="#FF5E14"/>
<path d="M129.144 117.813L121.311 150.04H118.085L125.89 117.813H129.144ZM133.656 129.189C133.771 127.403 134.453 126.011 135.701 125.013C136.968 124.014 138.581 123.515 140.539 123.515C141.883 123.515 143.045 123.755 144.024 124.235C145.003 124.715 145.743 125.368 146.242 126.194C146.741 127.019 146.991 127.95 146.991 128.987C146.991 130.178 146.674 131.195 146.04 132.04C145.407 132.885 144.648 133.451 143.765 133.739V133.854C144.898 134.2 145.781 134.834 146.415 135.755C147.048 136.658 147.365 137.819 147.365 139.24C147.365 140.373 147.106 141.381 146.587 142.264C146.069 143.147 145.301 143.848 144.283 144.366C143.266 144.866 142.047 145.115 140.626 145.115C138.552 145.115 136.843 144.587 135.499 143.531C134.175 142.456 133.464 140.92 133.368 138.923H136.536C136.613 139.941 137.007 140.776 137.717 141.429C138.427 142.062 139.387 142.379 140.597 142.379C141.768 142.379 142.671 142.062 143.304 141.429C143.938 140.776 144.255 139.941 144.255 138.923C144.255 137.579 143.823 136.629 142.959 136.072C142.114 135.496 140.808 135.208 139.042 135.208H138.293V132.501H139.071C140.626 132.482 141.807 132.222 142.613 131.723C143.439 131.224 143.851 130.437 143.851 129.362C143.851 128.44 143.554 127.71 142.959 127.173C142.363 126.616 141.519 126.338 140.424 126.338C139.349 126.338 138.514 126.616 137.919 127.173C137.323 127.71 136.968 128.382 136.853 129.189H133.656Z" fill="white"/>
</svg>
