<svg width="30" height="30" viewBox="0 0 30 30" fill="none" xmlns="http://www.w3.org/2000/svg">
<path d="M26.4485 20.708C27.3239 20.0441 27.8906 18.9933 27.8906 17.8124C27.8906 15.8092 26.261 14.1796 24.2578 14.1796C22.2547 14.1796 20.625 15.8092 20.625 17.8124C20.625 18.9929 21.1914 20.0434 22.0663 20.7073C21.3403 21.007 20.6796 21.4543 20.1276 22.0269C19.5087 20.8032 18.4646 19.8298 17.1907 19.3021C18.0661 18.6382 18.6328 17.5874 18.6328 16.4065C18.6328 14.4034 17.0031 12.7737 15 12.7737C12.9969 12.7737 11.3672 14.4034 11.3672 16.4065C11.3672 17.5874 11.9339 18.6382 12.8093 19.3021C11.5354 19.8298 10.4913 20.8032 9.8724 22.0269C9.32039 21.4543 8.65975 21.007 7.93371 20.7073C8.80863 20.0434 9.375 18.9929 9.375 17.8124C9.375 15.8092 7.74533 14.1796 5.74219 14.1796C3.73904 14.1796 2.10938 15.8092 2.10938 17.8124C2.10938 18.9933 2.67609 20.0441 3.55148 20.708C1.46889 21.5708 0 23.6247 0 26.0155V29.414C0 29.7375 0.262324 29.9999 0.585938 29.9999H9.84375H20.1562H29.4141C29.7377 29.9999 30 29.7375 30 29.414V26.0155C30 23.6247 28.5311 21.5708 26.4485 20.708ZM3.28125 17.8124C3.28125 16.4554 4.38521 15.3515 5.74219 15.3515C7.09916 15.3515 8.20312 16.4554 8.20312 17.8124C8.20312 19.1694 7.09916 20.2733 5.74219 20.2733C4.38521 20.2733 3.28125 19.1694 3.28125 17.8124ZM9.25781 24.6096V28.828H1.17188V26.0155C1.17188 23.4954 3.22213 21.4452 5.74219 21.4452C7.19572 21.4452 8.54865 22.1309 9.41074 23.2914C9.3109 23.7149 9.25781 24.1562 9.25781 24.6096ZM12.5391 16.4065C12.5391 15.0495 13.643 13.9456 15 13.9456C16.357 13.9456 17.4609 15.0495 17.4609 16.4065C17.4609 17.7635 16.357 18.8674 15 18.8674C13.643 18.8674 12.5391 17.7635 12.5391 16.4065ZM19.5703 28.828H18.4082V26.9807C18.4082 26.6572 18.1459 26.3948 17.8223 26.3948C17.4987 26.3948 17.2363 26.6572 17.2363 26.9807V28.828H10.4297V24.6096C10.4297 22.0895 12.4799 20.0393 15 20.0393C17.5201 20.0393 19.5703 22.0895 19.5703 24.6096V28.828ZM21.7969 17.8124C21.7969 16.4554 22.9008 15.3515 24.2578 15.3515C25.6148 15.3515 26.7188 16.4554 26.7188 17.8124C26.7188 19.1694 25.6148 20.2733 24.2578 20.2733C22.9008 20.2733 21.7969 19.1694 21.7969 17.8124ZM28.8281 28.828H20.7422V24.6096C20.7422 24.1562 20.6891 23.7149 20.5893 23.2914C21.4513 22.1309 22.8043 21.4452 24.2578 21.4452C26.7779 21.4452 28.8281 23.4954 28.8281 26.0155V28.828Z" fill="white"/>
<path d="M20.8048 1.80469C20.576 1.57582 20.205 1.57588 19.9761 1.80469L17.9656 3.81527C17.7367 4.04408 17.7367 4.4151 17.9656 4.64396C18.08 4.75834 18.2299 4.81558 18.3799 4.81558C18.5299 4.81558 18.6799 4.7584 18.7942 4.64396L20.8048 2.63338C21.0336 2.40457 21.0336 2.03355 20.8048 1.80469Z" fill="white"/>
<path d="M12.0343 3.81525L10.0238 1.80466C9.79495 1.57585 9.42393 1.57585 9.19507 1.80466C8.9662 2.03347 8.96626 2.40449 9.19507 2.63335L11.2057 4.64394C11.3201 4.75837 11.4701 4.81556 11.62 4.81556C11.77 4.81556 11.92 4.75837 12.0343 4.64394C12.2632 4.41513 12.2632 4.04412 12.0343 3.81525Z" fill="white"/>
<path d="M15 0C14.6764 0 14.4141 0.262324 14.4141 0.585938V1.84494C14.4141 2.16855 14.6764 2.43088 15 2.43088C15.3236 2.43088 15.5859 2.16855 15.5859 1.84494V0.585938C15.5859 0.262324 15.3236 0 15 0Z" fill="white"/>
<path d="M19.5528 6.61846C19.4502 6.30281 19.1824 6.07717 18.8541 6.02947L16.7271 5.72039L15.7759 3.79301C15.629 3.49541 15.3317 3.31055 14.9998 3.31055C14.6679 3.31055 14.3706 3.49541 14.2237 3.79301L13.2724 5.72039L11.1456 6.02947C10.8171 6.07717 10.5494 6.30287 10.4468 6.61846C10.3443 6.93404 10.4281 7.274 10.6658 7.50568L12.2049 9.00592L11.8416 11.1243C11.7855 11.4513 11.9173 11.7757 12.1858 11.9708C12.3375 12.081 12.5151 12.1371 12.6937 12.1371C12.8313 12.1371 12.9696 12.1039 13.0973 12.0367L14.9998 11.0365L16.9022 12.0367C17.1959 12.1911 17.5452 12.1659 17.8138 11.9708C18.0822 11.7757 18.2141 11.4513 18.158 11.1243L17.7947 9.00592L19.3338 7.50568C19.5715 7.274 19.6553 6.93404 19.5528 6.61846ZM16.8613 8.27924C16.6573 8.47811 16.5643 8.76439 16.6124 9.04529L16.8981 10.7106L15.4026 9.92438C15.2765 9.85805 15.1381 9.82494 14.9998 9.82494C14.8614 9.82494 14.7231 9.85805 14.597 9.92438L13.1015 10.7106L13.3872 9.04523C13.4353 8.76445 13.3422 8.47811 13.1382 8.27924L11.9283 7.09992L13.6003 6.85693C13.8823 6.81598 14.126 6.63896 14.252 6.38344L14.9998 4.86832L15.8126 6.51521C15.8979 6.68807 16.0628 6.80789 16.2535 6.83572L18.0712 7.09986L16.8613 8.27924Z" fill="white"/>
<path d="M18.2367 24.2849C18.1271 24.1759 17.9766 24.1138 17.8224 24.1138C17.6678 24.1138 17.5172 24.1759 17.4082 24.2849C17.2986 24.3944 17.2365 24.545 17.2365 24.6997C17.2365 24.8538 17.2986 25.005 17.4082 25.1139C17.5172 25.2229 17.6678 25.2856 17.8224 25.2856C17.9766 25.2856 18.1271 25.2229 18.2367 25.1139C18.3457 25.0044 18.4084 24.8538 18.4084 24.6997C18.4084 24.5456 18.3457 24.3944 18.2367 24.2849Z" fill="white"/>
</svg>
